<?xml version="1.0" encoding="utf-8"?>
<svg version="1.1" id="Capa_1" xmlns="http://www.w3.org/2000/svg" xmlns:xlink="http://www.w3.org/1999/xlink" x="0px" y="0px"
	 viewBox="0 0 50 50" style="enable-background:new 0 0 50 50;" xml:space="preserve" class="svgLogo">
<style type="text/css">
	svg{color:#006612;}
	.st0{fill:#FCE5C9;}
	.st1{fill:#EECFAC;}
	.st2{opacity:0.52;fill:#CEA870;}
	.st3{opacity:0.73;fill:#CEA870;}
	.st4{opacity:0.63;fill:#FFF8F2;}
	.st5{fill:currentColor;}
	.st6{display:none;}
	.st7{display:inline;fill:#FFFFFF;}
	.st8{fill:#B41830;}
	.st9{opacity:0.3;}
	.st10{fill:#262B5F;}
	.st11{fill:#F59A2C;}
	.st12{fill:#FFFFFF;}
	.st13{fill:#ED6A9E;}
	.st14{fill:#40B2E7;}
	.st15{opacity:0.7;}
	.st16{fill:#E94692;}
	.st17{fill:#E83D74;}
	.st18{fill:currentColor;}
	.st19{fill:none;}
	.st20{fill:#1E1E1C;}
</style>
<g>
	<g>
		<path class="st0" d="M2.82,14.62l22.15-8.77l22.15,8.77L45.57,35.4H4.77L2.82,14.62z M25.06,9.33c-0.7,0-1.27,0.57-1.27,1.27
			c0,0.7,0.57,1.27,1.27,1.27c0.7,0,1.27-0.57,1.27-1.27C26.33,9.9,25.76,9.33,25.06,9.33z"/>
		<polygon class="st1" points="24.97,5.85 47.12,14.62 48.93,13.46 24.97,3.98 1.02,13.46 2.82,14.62 		"/>
		<polygon class="st1" points="45.44,37.11 4.92,37.11 4.77,35.4 45.57,35.4 		"/>
		<polygon class="st2" points="47.12,14.62 24.97,5.85 2.82,14.62 2.82,15.2 24.97,6.42 47.12,15.2 		"/>
		<path class="st3" d="M22.94,10.59c0-1.17,0.95-2.12,2.12-2.12l0,0c1.17,0,2.12,0.95,2.12,2.12l0,0c0,1.17-0.95,2.12-2.12,2.12l0,0
			C23.89,12.72,22.94,11.77,22.94,10.59L22.94,10.59z M23.13,10.59c0,1.07,0.87,1.93,1.93,1.93l0,0c1.07,0,1.93-0.87,1.93-1.93l0,0
			c0-1.07-0.87-1.93-1.93-1.93l0,0C23.99,8.66,23.13,9.53,23.13,10.59L23.13,10.59z"/>
		<polygon class="st4" points="45.56,35.53 4.78,35.53 4.77,35.4 45.57,35.4 		"/>
	</g>
	<path class="st5" d="M34.23,2.53c0.73,0.43,1.49,0.79,2.29,1.08c-0.06,0-0.11,0-0.17,0c-0.42,0-0.86-0.04-1.34-0.12
		c-2.16-0.38-3.54-0.82-4.83-0.83c-0.01,0-0.02,0-0.02,0c-0.5,0-0.99,0.08-1.48,0.26c0.16-0.28,0.36-0.51,0.6-0.7
		c0.49-0.38,1.15-0.6,1.94-0.6C32.11,1.61,33.16,1.9,34.23,2.53z M31.22,1.62c-0.79,0-1.45,0.22-1.94,0.6
		c-0.24,0.19-0.44,0.42-0.6,0.7c0.49-0.18,0.98-0.26,1.48-0.26c0.01,0,0.02,0,0.02,0c1.3,0.01,2.67,0.44,4.83,0.83
		c0.48,0.09,0.92,0.12,1.34,0.12c0.06,0,0.11,0,0.17,0c-0.8-0.29-1.56-0.65-2.29-1.08C33.16,1.9,32.11,1.61,31.22,1.62z M47,4.06
		c0.02,0.26-0.18,0.48-0.44,0.5c-1.05,0.07-2.04,0.1-2.97,0.1c-1.81,0-3.43-0.14-4.91-0.44c-0.73,0.2-1.49,0.33-2.33,0.33
		c-0.47,0-0.97-0.04-1.51-0.14c-2.21-0.4-3.6-0.82-4.67-0.81c-0.39,0-0.74,0.05-1.1,0.17c0.08,0.11,0.13,0.25,0.13,0.4
		c0,0.38-0.3,0.69-0.68,0.7c0.03,0.27,0.04,0.53,0.04,0.79c0,1.68-0.54,3.19-1.5,4.39c-0.36,0.45-0.79,0.74-1.29,0.75
		c0,0-0.01,0-0.01,0c-0.32,0-0.63-0.15-0.84-0.4c-0.21-0.25-0.33-0.57-0.38-0.94c0-0.01,0-0.01,0-0.02
		c0.16-0.07,0.33-0.11,0.52-0.11c0.15,0,0.3,0.03,0.43,0.08c0.04,0.2,0.1,0.32,0.15,0.38c0.06,0.06,0.08,0.07,0.14,0.07
		c0.08,0.01,0.31-0.08,0.56-0.39c0.82-1.04,1.29-2.33,1.29-3.8c0-0.33-0.02-0.67-0.07-1.01c-0.1,0.08-0.19,0.16-0.28,0.24
		l-0.95-0.38c0.16-0.17,0.34-0.33,0.52-0.49c-0.12-0.13-0.19-0.29-0.19-0.48c0-0.39,0.31-0.7,0.7-0.7c0.11,0,0.2,0.02,0.29,0.07
		c0.22-0.58,0.58-1.07,1.05-1.43c0.68-0.54,1.56-0.8,2.52-0.8c1.09,0,2.3,0.34,3.49,1.04c1.21,0.71,2.5,1.21,3.95,1.53
		c0.45-0.13,0.9-0.28,1.38-0.44c1.29-0.44,2.78-0.95,4.8-1.17c0.26-0.03,0.49,0.16,0.52,0.42c0.03,0.26-0.16,0.49-0.42,0.52
		c-1.74,0.19-3.05,0.6-4.25,1.01c0.9,0.1,1.87,0.14,2.91,0.14c0.91,0,1.88-0.03,2.91-0.1l0,0C46.77,3.61,46.99,3.8,47,4.06z
		 M36.53,3.61c-0.8-0.29-1.56-0.65-2.29-1.08c-1.07-0.63-2.12-0.91-3.02-0.91c-0.79,0-1.45,0.22-1.94,0.6
		c-0.24,0.19-0.44,0.42-0.6,0.7c0.49-0.18,0.98-0.26,1.48-0.26c0.01,0,0.02,0,0.02,0c1.3,0.01,2.67,0.44,4.83,0.83
		c0.48,0.09,0.92,0.12,1.34,0.12C36.41,3.61,36.47,3.61,36.53,3.61z"/>
</g>
<g>
	<g class="st6">
		<rect x="24.93" y="13.31" class="st7" width="20.74" height="20.74"/>
	</g>
	<g>
		<circle class="st8" cx="35.3" cy="23.27" r="6.95"/>
	</g>
	<g>
		<g class="st9">
			<ellipse class="st10" cx="35.3" cy="31.26" rx="6.81" ry="0.35"/>
		</g>
		<g>
			<path class="st10" d="M29.05,31.07c0.52-0.03,1.04-0.04,1.56-0.06c0.26-0.01,0.52-0.01,0.78-0.02l0.78-0.01l0.78-0.01l0.39,0
				l0.39,0l0.78,0l0.78,0l0.78,0c0.26,0,0.52,0,0.78,0.01l0.78,0.01l0.78,0.01c1.04,0.02,2.08,0.04,3.13,0.08
				c0.03,0,0.05,0.03,0.05,0.06c0,0.03-0.02,0.05-0.05,0.05c-1.04,0.04-2.08,0.06-3.13,0.08l-0.78,0.01l-0.78,0.01
				c-0.26,0-0.52,0.01-0.78,0.01l-0.78,0l-0.78,0l-0.78,0l-0.39,0l-0.39,0l-0.78-0.01l-0.78-0.01c-0.26,0-0.52-0.01-0.78-0.02
				c-0.52-0.01-1.04-0.03-1.56-0.06c-0.03,0-0.05-0.03-0.05-0.06C29,31.09,29.02,31.07,29.05,31.07z"/>
		</g>
		<g>
			<g>
				<path class="st11" d="M40.86,27.51c-0.08,0.93-1.02,1.4-1.05,1.41c0,0,0,0,0,0c-0.49-0.05-0.8-0.29-0.99-0.61c0,0,0,0,0,0
					c0,0,0,0,0,0c-0.06-0.1-0.11-0.21-0.15-0.32c-0.01-0.03-0.02-0.05-0.03-0.08c-0.2-0.66-0.09-1.4-0.09-1.4
					c0.24-0.24,0.49-0.38,0.73-0.44C40.17,25.84,40.93,26.7,40.86,27.51z"/>
			</g>
			<g>
				<path class="st12" d="M40.86,27.51c-0.08,0.93-1.02,1.4-1.05,1.41c0.03-0.03,1.68-1.76-0.52-2.86
					C40.17,25.84,40.93,26.7,40.86,27.51z"/>
			</g>
			<g>
				<path class="st12" d="M39.81,27.41c-0.11,0.83-0.97,0.9-0.99,0.9c0,0,0,0,0,0c-0.08-0.13-0.13-0.26-0.17-0.4
					C39.35,27.81,39.81,27.41,39.81,27.41z"/>
			</g>
			<g class="st9">
				<path class="st10" d="M40.07,26.15c0.32,0.29,0.52,0.73,0.48,1.16c-0.08,0.93-1.02,1.4-1.05,1.41c0,0,0,0,0,0
					c-0.17-0.02-0.32-0.06-0.45-0.12c0.18,0.17,0.43,0.29,0.76,0.32c0,0,0,0,0,0c0.03-0.01,0.96-0.48,1.05-1.41
					C40.91,26.96,40.57,26.38,40.07,26.15z"/>
			</g>
			<g class="st9">
				<path class="st10" d="M39.81,27.41c-0.1,0.73-0.83,0.87-0.99,0.9c-0.06-0.1-0.11-0.21-0.15-0.32
					C39.49,27.98,39.81,27.41,39.81,27.41z"/>
			</g>
			<g>
				<path class="st10" d="M39.81,29.02C39.81,29.02,39.8,29.02,39.81,29.02c-0.41-0.04-0.74-0.21-0.97-0.5
					c-0.57-0.73-0.39-1.97-0.38-2.02c0-0.02,0.01-0.04,0.03-0.05c0.5-0.49,1.09-0.63,1.61-0.39c0.54,0.25,0.9,0.87,0.85,1.46
					c-0.09,0.99-1.06,1.47-1.1,1.49C39.84,29.02,39.82,29.02,39.81,29.02z M38.65,26.56c-0.02,0.19-0.13,1.24,0.34,1.85
					c0.19,0.25,0.46,0.39,0.8,0.43c0.14-0.08,0.9-0.52,0.97-1.33c0.05-0.52-0.27-1.05-0.74-1.28
					C39.76,26.11,39.24,25.99,38.65,26.56z"/>
			</g>
			<g>
				<path class="st10" d="M38.8,28.19l0.04,0c0.01,0,0.03,0,0.04-0.01c0.03,0,0.06-0.01,0.08-0.01c0.05-0.01,0.11-0.02,0.16-0.04
					c0.1-0.03,0.2-0.08,0.29-0.15c0.09-0.07,0.16-0.15,0.22-0.24c0.02-0.02,0.03-0.05,0.05-0.07c0.02-0.02,0.03-0.05,0.04-0.08
					c0.01-0.01,0.01-0.03,0.02-0.04l0.02-0.04c0.01-0.03,0.02-0.06,0.04-0.08l0,0c0,0,0.01-0.01,0.01,0c0,0,0,0,0,0.01
					c0,0.03,0,0.06,0,0.1c0,0.03,0,0.06-0.01,0.1l-0.01,0.05c0,0.02-0.01,0.03-0.01,0.05c-0.01,0.03-0.02,0.06-0.03,0.09
					c-0.05,0.12-0.13,0.24-0.23,0.33c-0.1,0.09-0.22,0.16-0.35,0.2c-0.06,0.02-0.13,0.04-0.19,0.04c-0.03,0-0.07,0.01-0.1,0.01
					c-0.02,0-0.03,0-0.05,0c-0.02,0-0.03,0-0.05,0c-0.05-0.01-0.09-0.05-0.08-0.1C38.71,28.22,38.75,28.19,38.8,28.19L38.8,28.19z"
					/>
			</g>
		</g>
		<g>
			<g>
				<path class="st11" d="M39.72,31.09h-8.84c-0.38-0.07-0.65-0.33-0.81-0.66c-0.26-0.53-0.23-1.22,0.11-1.49
					c0.54-0.43,1.13-0.05,1.13-0.05c0.22-0.5,0.66-0.56,0.66-0.56C31.94,26,33,25.37,33,25.37h4.6c0,0,1.06,0.63,1.02,2.96
					c0,0,0.44,0.06,0.66,0.56c0,0,0.59-0.38,1.13,0.05C40.96,29.38,40.72,30.9,39.72,31.09z"/>
			</g>
			<g>
				<path class="st12" d="M31.93,31.09h-1.05c-1-0.19-1.24-1.71-0.7-2.14c0.4-0.32,0.82-0.2,1.01-0.11l0.12,0.06l0,0
					C31.32,28.9,32.37,29.6,31.93,31.09z"/>
			</g>
			<g>
				<path class="st12" d="M36.74,29.38c0,0-0.33,0.34-1.44,0.34s-1.44-0.34-1.44-0.34s-1.03-1.63-0.66-3.3
					c0.05-0.23,0.13-0.46,0.24-0.69c0,0,0.39,0.32,1.86,0.32c1.47,0,1.86-0.32,1.86-0.32c0.02,0.04,0.04,0.08,0.06,0.13
					c0.09,0.2,0.15,0.4,0.19,0.6C37.76,27.77,36.74,29.38,36.74,29.38z"/>
			</g>
			<g>
				<path class="st12" d="M38.67,31.09h1.05c1-0.19,1.24-1.71,0.7-2.14c-0.4-0.32-0.82-0.2-1.01-0.11l-0.12,0.06l0,0
					C39.29,28.9,38.23,29.6,38.67,31.09z"/>
			</g>
			<g class="st9">
				<path class="st10" d="M38.57,30.5c0,0-0.54,0.27-3.27,0.27c-2.73,0-3.27-0.27-3.27-0.27c-1.35,0.54-1.96-0.07-1.96-0.07
					c0.16,0.32,0.43,0.58,0.81,0.66h4.42h4.42c0.38-0.07,0.65-0.33,0.81-0.66C40.53,30.44,39.92,31.05,38.57,30.5z"/>
			</g>
			<g>
				<path class="st10" d="M39.33,28.98l-0.02,0.01c-0.01,0-0.01,0.01-0.02,0.01c-0.01,0.01-0.02,0.02-0.04,0.02
					c-0.02,0.02-0.05,0.04-0.07,0.05c-0.05,0.04-0.09,0.08-0.13,0.12c-0.08,0.09-0.16,0.18-0.22,0.28c-0.06,0.1-0.11,0.21-0.14,0.33
					c-0.02,0.06-0.03,0.12-0.05,0.18c-0.01,0.03-0.01,0.06-0.02,0.09c-0.01,0.03-0.02,0.06-0.03,0.09l0,0
					c0,0.01-0.01,0.01-0.02,0.01c0,0-0.01-0.01-0.01-0.01c-0.01-0.03-0.01-0.06-0.02-0.1c0-0.02,0-0.03-0.01-0.05l0-0.02l0-0.02
					c0-0.03,0-0.07,0-0.1c0-0.03,0.01-0.07,0.01-0.1c0.01-0.03,0.01-0.07,0.02-0.1l0.03-0.1c0.01-0.03,0.02-0.06,0.03-0.09
					c0.01-0.03,0.02-0.06,0.04-0.09c0.06-0.12,0.14-0.23,0.23-0.33c0.02-0.03,0.05-0.05,0.07-0.07c0.02-0.02,0.05-0.05,0.08-0.07
					c0.03-0.02,0.05-0.04,0.08-0.06c0.01-0.01,0.03-0.02,0.04-0.03c0.01,0,0.01-0.01,0.02-0.01c0.01,0,0.02-0.01,0.03-0.01
					c0.05-0.02,0.1,0,0.13,0.04C39.39,28.9,39.38,28.95,39.33,28.98L39.33,28.98z"/>
			</g>
			<g>
				<path class="st10" d="M31.36,28.81c0.01,0.01,0.02,0.01,0.03,0.01c0.01,0,0.02,0.01,0.02,0.01c0.02,0.01,0.03,0.02,0.04,0.03
					c0.03,0.02,0.06,0.04,0.08,0.06c0.03,0.02,0.05,0.04,0.08,0.07c0.02,0.02,0.05,0.05,0.07,0.07c0.09,0.1,0.17,0.21,0.23,0.33
					c0.02,0.03,0.03,0.06,0.04,0.09c0.01,0.03,0.03,0.06,0.03,0.09l0.03,0.1c0.01,0.03,0.01,0.07,0.02,0.1
					c0.01,0.03,0.01,0.07,0.01,0.1c0,0.03,0,0.07,0,0.1l0,0.02l0,0.02c0,0.02,0,0.03-0.01,0.05c0,0.03-0.01,0.07-0.02,0.1
					c0,0.01-0.01,0.01-0.02,0.01c0,0-0.01,0-0.01-0.01l0,0c-0.01-0.03-0.02-0.06-0.03-0.09c-0.01-0.03-0.01-0.06-0.02-0.09
					c-0.02-0.06-0.03-0.12-0.05-0.18c-0.03-0.12-0.08-0.23-0.14-0.33c-0.06-0.1-0.13-0.2-0.22-0.28c-0.04-0.04-0.09-0.08-0.13-0.12
					c-0.02-0.02-0.05-0.04-0.07-0.05c-0.01-0.01-0.02-0.02-0.04-0.02c-0.01,0-0.01-0.01-0.02-0.01l-0.02-0.01l-0.01,0
					c-0.04-0.03-0.06-0.09-0.03-0.13C31.26,28.81,31.32,28.79,31.36,28.81z"/>
			</g>
			<g>
				<path class="st10" d="M39.72,31.18h-8.84c-0.01,0-0.01,0-0.02,0c-0.49-0.09-0.86-0.49-1-1.06c-0.13-0.52-0.02-1.02,0.27-1.25
					c0.46-0.36,0.95-0.2,1.15-0.11c0.19-0.34,0.47-0.47,0.61-0.51c-0.01-2.3,1.02-2.94,1.07-2.97c0.01-0.01,0.03-0.01,0.05-0.01h4.6
					c0.02,0,0.03,0,0.05,0.01c0.04,0.03,1.08,0.67,1.07,2.97c0.14,0.04,0.42,0.17,0.61,0.51c0.2-0.09,0.69-0.26,1.15,0.11
					c0.29,0.23,0.39,0.73,0.27,1.25c-0.14,0.57-0.52,0.97-1,1.06C39.73,31.18,39.73,31.18,39.72,31.18z M30.89,31h8.82
					c0.41-0.08,0.73-0.43,0.85-0.92c0.11-0.44,0.03-0.87-0.2-1.05c-0.48-0.38-1-0.06-1.02-0.05c-0.02,0.01-0.05,0.02-0.08,0.01
					c-0.03-0.01-0.05-0.03-0.06-0.05c-0.2-0.44-0.57-0.51-0.59-0.51c-0.05-0.01-0.08-0.05-0.08-0.09c0.02-1.17-0.25-1.9-0.48-2.29
					c-0.21-0.36-0.41-0.53-0.48-0.57h-4.55c-0.06,0.05-0.27,0.21-0.48,0.57c-0.23,0.4-0.49,1.12-0.48,2.29
					c0,0.05-0.03,0.09-0.08,0.09c-0.02,0-0.39,0.07-0.59,0.51c-0.01,0.03-0.03,0.04-0.06,0.05c-0.03,0.01-0.05,0-0.08-0.01
					c-0.02-0.01-0.54-0.34-1.02,0.05c-0.23,0.18-0.31,0.62-0.2,1.05C30.17,30.57,30.48,30.91,30.89,31z"/>
			</g>
			<g>
				<g>
					
						<ellipse transform="matrix(0.9567 -0.2912 0.2912 0.9567 -7.4361 10.317)" class="st13" cx="30.95" cy="30.14" rx="0.33" ry="0.39"/>
				</g>
				<g>
					
						<ellipse transform="matrix(0.9567 -0.2912 0.2912 0.9567 -7.3397 10.1387)" class="st13" cx="30.4" cy="29.73" rx="0.17" ry="0.2"/>
				</g>
				<g>
					
						<ellipse transform="matrix(0.9567 -0.2912 0.2912 0.9567 -7.2402 10.3731)" class="st13" cx="31.23" cy="29.51" rx="0.17" ry="0.2"/>
				</g>
				<g>
					
						<ellipse transform="matrix(0.9567 -0.2912 0.2912 0.9567 -7.2298 10.2253)" class="st13" cx="30.74" cy="29.4" rx="0.17" ry="0.2"/>
				</g>
			</g>
			<g>
				<g>
					
						<ellipse transform="matrix(0.2912 -0.9567 0.9567 0.2912 -0.6771 59.3086)" class="st13" cx="39.68" cy="30.11" rx="0.38" ry="0.33"/>
				</g>
				<g>
					
						<ellipse transform="matrix(0.2912 -0.9567 0.9567 0.2912 0.0921 59.5379)" class="st13" cx="40.22" cy="29.71" rx="0.2" ry="0.17"/>
				</g>
				<g>
					
						<ellipse transform="matrix(0.2912 -0.9567 0.9567 0.2912 -0.2862 58.603)" class="st13" cx="39.4" cy="29.49" rx="0.2" ry="0.17"/>
				</g>
				<g>
					
						<ellipse transform="matrix(0.2912 -0.9567 0.9567 0.2912 0.1553 58.9869)" class="st13" cx="39.88" cy="29.39" rx="0.2" ry="0.17"/>
				</g>
			</g>
		</g>
		<g>
			<g>
				<path class="st11" d="M41.22,23.61c0,0.91-0.43,1.58-0.83,2.01c-0.35,0.37-0.67,0.56-0.67,0.56c-0.17-0.6-0.39-0.99-0.58-1.24
					c-0.19-0.25-0.34-0.34-0.36-0.35c0,0,0,0,0,0c0.02-0.04,0.04-0.07,0.05-0.11c0.06-0.12,0.11-0.24,0.16-0.36
					c0.16-0.38,0.31-0.75,0.52-1.01c0.18-0.23,0.42-0.39,0.75-0.43c0.47-0.06,0.71,0.18,0.83,0.41c0.01,0.02,0.03,0.05,0.04,0.07
					C41.2,23.31,41.22,23.46,41.22,23.61z"/>
			</g>
			<g>
				<path class="st12" d="M41.22,23.61c0,0.91-0.43,1.58-0.83,2.01c-0.22-0.9-0.87-1.32-1.4-1.5c0.3-0.72,0.56-1.36,1.27-1.44
					c0.52-0.06,0.76,0.23,0.87,0.48C41.2,23.31,41.22,23.46,41.22,23.61z"/>
			</g>
			<g>
				<g>
					<circle class="st13" cx="40.19" cy="23.9" r="0.29"/>
				</g>
				<g>
					
						<ellipse transform="matrix(0.3247 -0.9458 0.9458 0.3247 4.8978 53.6224)" class="st13" cx="40" cy="23.38" rx="0.17" ry="0.15"/>
				</g>
				<g>
					
						<ellipse transform="matrix(0.3247 -0.9458 0.9458 0.3247 5.1088 54.4601)" class="st13" cx="40.69" cy="23.65" rx="0.17" ry="0.15"/>
				</g>
				<g>
					
						<ellipse transform="matrix(0.3247 -0.9458 0.9458 0.3247 5.2202 53.9709)" class="st13" cx="40.4" cy="23.33" rx="0.17" ry="0.15"/>
				</g>
			</g>
			<g class="st9">
				<path class="st10" d="M41.22,23.61c0,0.91-0.43,1.58-0.83,2.01c-0.35,0.37-0.67,0.56-0.67,0.56c-0.17-0.6-0.39-0.99-0.58-1.24
					c-0.19-0.25-0.34-0.34-0.36-0.35c0,0,0,0,0,0c0.02-0.04,0.04-0.07,0.05-0.11c0.18,0.07,0.4,0.18,0.62,0.36
					c0.37,0.31,0.93,0.2,1.17-0.22c0.26-0.45,0.5-1.02,0.47-1.54c0.01,0.02,0.03,0.05,0.04,0.07C41.2,23.31,41.22,23.46,41.22,23.61
					z"/>
			</g>
			<g>
				<path class="st10" d="M39.72,26.28c-0.01,0-0.02,0-0.04-0.01c-0.03-0.01-0.05-0.03-0.06-0.06c-0.33-1.19-0.89-1.53-0.89-1.54
					c-0.04-0.02-0.06-0.08-0.04-0.12c0.08-0.17,0.16-0.35,0.23-0.52c0.29-0.7,0.57-1.36,1.33-1.45c0.45-0.05,0.79,0.14,0.97,0.54
					c0.06,0.15,0.1,0.31,0.1,0.49c0,0.9-0.42,1.58-0.77,1.99c-0.38,0.44-0.76,0.66-0.78,0.67C39.75,26.28,39.74,26.28,39.72,26.28z
					 M38.9,24.57c0.17,0.13,0.59,0.53,0.87,1.47c0.14-0.09,0.38-0.29,0.63-0.57c0.48-0.55,0.72-1.18,0.72-1.86
					c0-0.15-0.03-0.29-0.08-0.41c-0.14-0.33-0.4-0.47-0.77-0.43c-0.65,0.08-0.89,0.66-1.18,1.34C39.04,24.26,38.97,24.41,38.9,24.57
					z"/>
			</g>
		</g>
		<g>
			<path class="st14" d="M39.46,28.38C39.47,28.38,39.47,28.38,39.46,28.38c-0.06,0.06-0.12,0.11-0.19,0.16
				c-0.44,0.34-0.96,0.54-1.42,0.66c-0.07,0.02-0.14,0.04-0.21,0.05c-0.14,0.03-0.26,0.05-0.38,0.07c-0.32,0.05-0.53,0.06-0.53,0.06
				l-0.16-0.91l-0.37-2.1l-0.1-0.57c0.17-0.03,0.32-0.06,0.47-0.09c0.23-0.06,0.44-0.12,0.64-0.19c0.54-0.2,0.94-0.44,1.2-0.62
				c0,0,0,0,0,0c0.24-0.17,0.37-0.3,0.37-0.3c0,0,0,0,0,0c0.16,0.08,0.29,0.18,0.4,0.29c0.23,0.24,0.36,0.53,0.43,0.78
				c0.09,0.29,0.1,0.52,0.1,0.52c-0.15,0.1-0.3,0.19-0.43,0.26c-0.19,0.1-0.33,0.16-0.33,0.16C39.27,27.2,39.46,28.34,39.46,28.38
				C39.46,28.38,39.46,28.38,39.46,28.38z"/>
		</g>
		<g>
			<path class="st12" d="M37.27,29.33c-0.32,0.05-0.53,0.06-0.53,0.06l-0.63-3.57c0.17-0.03,0.32-0.06,0.47-0.09l0,0
				C36.58,25.72,36.82,26.68,37.27,29.33z"/>
		</g>
		<g>
			<path class="st12" d="M39.47,28.38c-0.06,0.06-0.12,0.11-0.19,0.16c-0.01-0.04-0.03-0.08-0.05-0.12
				c-0.02-0.05-0.04-0.09-0.06-0.14c-0.04-0.09-0.09-0.18-0.14-0.26c-0.05-0.08-0.11-0.16-0.18-0.21c-0.03-0.03-0.07-0.04-0.1-0.05
				c-0.03-0.01-0.06,0-0.09,0.01c-0.03,0.01-0.06,0.03-0.09,0.06c-0.03,0.03-0.05,0.06-0.06,0.09c-0.02,0.06,0,0.12,0.04,0.18
				c0.04,0.06,0.1,0.1,0.17,0.11c0.03,0.01,0.07,0,0.11-0.01c0.04-0.01,0.09-0.04,0.13-0.07c0,0,0.01,0,0.01,0c0,0,0,0,0,0
				c-0.01,0.06-0.03,0.12-0.07,0.17c-0.04,0.05-0.11,0.09-0.18,0.1c-0.07,0.01-0.15,0-0.21-0.03c-0.06-0.03-0.12-0.07-0.17-0.13
				c-0.04-0.05-0.08-0.12-0.09-0.19c-0.01-0.07-0.01-0.15,0.02-0.22c0.03-0.07,0.07-0.13,0.12-0.18c0.05-0.04,0.1-0.08,0.17-0.11
				c0.03-0.01,0.07-0.02,0.11-0.03c0.04,0,0.08,0,0.11,0.01c0.07,0.02,0.14,0.05,0.19,0.09c0.1,0.08,0.17,0.17,0.24,0.27
				c0.06,0.09,0.11,0.19,0.16,0.29c0.02,0.05,0.04,0.1,0.06,0.15C39.45,28.35,39.46,28.37,39.47,28.38
				C39.46,28.38,39.46,28.38,39.47,28.38C39.47,28.38,39.47,28.38,39.47,28.38z"/>
		</g>
		<g>
			<path class="st12" d="M38.16,28.62c-0.02,0.06-0.05,0.12-0.1,0.16c-0.05,0.04-0.11,0.06-0.17,0.06c-0.06,0-0.11-0.02-0.15-0.04
				c0,0,0,0,0-0.01c0,0,0,0,0,0c0.05-0.01,0.09-0.03,0.12-0.05c0.03-0.02,0.05-0.05,0.07-0.07c0.03-0.05,0.03-0.12,0.02-0.18
				c-0.02-0.06-0.05-0.11-0.1-0.13c-0.03-0.01-0.06-0.01-0.09-0.01c-0.04,0-0.07,0.01-0.09,0.03c-0.02,0.01-0.04,0.03-0.05,0.06
				c-0.01,0.02-0.02,0.06-0.02,0.09c0,0.07,0.02,0.16,0.04,0.24c0.03,0.08,0.06,0.16,0.1,0.24c0.04,0.07,0.07,0.14,0.12,0.21
				c-0.07,0.02-0.14,0.04-0.21,0.05c-0.03-0.06-0.06-0.11-0.09-0.17c-0.04-0.09-0.08-0.17-0.11-0.27c-0.03-0.09-0.05-0.19-0.05-0.31
				c0-0.06,0.01-0.12,0.04-0.18c0.01-0.03,0.03-0.06,0.06-0.08c0.02-0.02,0.05-0.04,0.08-0.06c0.06-0.03,0.11-0.05,0.17-0.05
				c0.06-0.01,0.12-0.01,0.18,0.02c0.06,0.02,0.12,0.06,0.16,0.11c0.04,0.05,0.07,0.11,0.08,0.17
				C38.18,28.49,38.17,28.56,38.16,28.62z"/>
		</g>
		<g>
			<path class="st12" d="M39.72,26.19c-0.15,0.1-0.3,0.19-0.43,0.26c-0.26-1.27-0.87-1.55-0.87-1.55s0,0,0,0
				c0.24-0.17,0.37-0.3,0.37-0.3C39.68,25.02,39.72,26.19,39.72,26.19z"/>
		</g>
		<g class="st9">
			<path class="st10" d="M39.46,28.38C39.47,28.38,39.47,28.38,39.46,28.38c-0.06,0.06-0.12,0.11-0.19,0.16
				c-0.44,0.34-0.96,0.54-1.42,0.66c-0.07,0.02-0.14,0.04-0.21,0.05c-0.14,0.03-0.26,0.05-0.38,0.07c-0.32,0.05-0.53,0.06-0.53,0.06
				l-0.16-0.91c0,0,1.19,0.23,2.09-0.28c0,0-0.4,0.04-1.04-0.06c-0.05-0.01-0.05-0.07-0.01-0.08c0.15-0.04,0.38-0.11,0.62-0.22
				c0.33-0.15,0.38-0.62,0.07-0.82C38.3,27,38.3,27,38.29,27c-0.16-0.1-0.15-0.34,0.02-0.42c0.46-0.23,1.06-0.57,1.31-0.91
				c0.09,0.29,0.1,0.52,0.1,0.52c-0.15,0.1-0.3,0.19-0.43,0.26c-0.19,0.1-0.33,0.16-0.33,0.16C39.27,27.2,39.46,28.34,39.46,28.38
				C39.46,28.38,39.46,28.38,39.46,28.38z"/>
		</g>
		<g>
			<path class="st10" d="M36.74,29.48c-0.05,0-0.08-0.03-0.09-0.08l-0.63-3.57c0-0.02,0-0.05,0.02-0.07
				c0.01-0.02,0.04-0.03,0.06-0.04c1.74-0.28,2.61-1.18,2.62-1.19c0.03-0.03,0.07-0.04,0.11-0.02c0.93,0.44,0.99,1.62,0.99,1.67
				c0,0.03-0.01,0.06-0.04,0.08c-0.27,0.19-0.55,0.32-0.69,0.39c0.3,0.63,0.47,1.67,0.48,1.72c0.01,0.03-0.01,0.06-0.03,0.08
				C38.47,29.42,36.82,29.48,36.74,29.48C36.74,29.48,36.74,29.48,36.74,29.48z M36.22,25.89l0.6,3.4c0.34-0.02,1.66-0.16,2.54-0.94
				c-0.04-0.23-0.22-1.18-0.49-1.7c-0.01-0.02-0.01-0.05-0.01-0.08c0.01-0.03,0.03-0.04,0.05-0.05c0,0,0.35-0.14,0.7-0.37
				c-0.02-0.22-0.15-1.07-0.82-1.43C38.59,24.91,37.75,25.62,36.22,25.89z"/>
		</g>
		<g>
			<path class="st10" d="M37.18,29.35c-0.45-2.61-0.69-3.59-0.69-3.6l0.18-0.04c0,0.01,0.24,1,0.69,3.62L37.18,29.35z"/>
		</g>
		<g>
			<path class="st10" d="M39.2,26.47c-0.25-1.2-0.81-1.48-0.82-1.48l0.08-0.17c0.03,0.01,0.65,0.32,0.92,1.61L39.2,26.47z"/>
		</g>
		<g>
			<path class="st10" d="M38.98,26.69c-0.04,0.01-0.08,0.02-0.12,0.03c-0.04,0.01-0.08,0.01-0.12,0.02
				c-0.04,0.01-0.08,0.01-0.12,0.02c-0.04,0-0.08,0.01-0.12,0.01c-0.01,0-0.01-0.01-0.01-0.02c0-0.01,0-0.01,0.01-0.01l0,0
				c0.04-0.02,0.07-0.04,0.11-0.06c0.04-0.02,0.07-0.04,0.11-0.06c0.04-0.02,0.07-0.04,0.11-0.05c0.04-0.02,0.07-0.03,0.11-0.05
				c0.05-0.02,0.1,0,0.12,0.05c0.02,0.05,0,0.1-0.05,0.12C38.99,26.69,38.99,26.69,38.98,26.69z"/>
		</g>
		<g>
			<g>
				<path class="st14" d="M34.49,25.81l-0.47,2.66l-0.16,0.91c0,0-0.01,0-0.02,0c0,0,0,0-0.01,0c0,0,0,0-0.01,0c0,0-0.01,0-0.01,0h0
					c0,0-0.01,0-0.01,0c0,0-0.01,0-0.01,0c-0.01,0-0.01,0-0.02,0c0,0,0,0,0,0c-0.01,0-0.01,0-0.02,0c0,0-0.01,0-0.01,0
					c-0.01,0-0.01,0-0.02,0c0,0,0,0-0.01,0c-0.01,0-0.02,0-0.04,0c-0.01,0-0.02,0-0.03,0c-0.01,0-0.02,0-0.03,0
					c-0.01,0-0.01,0-0.02,0c-0.01,0-0.03,0-0.04,0c-0.02,0-0.04,0-0.06-0.01c-0.02,0-0.03,0-0.05-0.01c-0.01,0-0.02,0-0.03,0
					c-0.01,0-0.03,0-0.04-0.01c-0.01,0-0.03,0-0.04-0.01c-0.01,0-0.03,0-0.04-0.01c-0.1-0.02-0.22-0.04-0.33-0.07
					c-0.04-0.01-0.07-0.02-0.11-0.03c-0.03-0.01-0.06-0.02-0.09-0.02c-0.06-0.02-0.11-0.03-0.17-0.05
					c-0.41-0.12-0.86-0.32-1.24-0.61c-0.07-0.05-0.13-0.1-0.19-0.16c0,0,0,0,0,0c0,0,0,0,0,0c0.01-0.05,0.19-1.18,0.51-1.78
					c0,0,0.06-0.12,0.16-0.29c0.19-0.32,0.55-0.83,1.01-1.03C33.24,25.49,33.8,25.7,34.49,25.81z"/>
			</g>
			<g>
				<path class="st12" d="M33.33,29.33c0.32,0.05,0.53,0.06,0.53,0.06l0.63-3.57c-0.17-0.03-0.32-0.06-0.47-0.09l0,0
					C34.02,25.72,33.79,26.68,33.33,29.33z"/>
			</g>
			<g>
				<path class="st12" d="M32.33,28.06c-0.01,0.07-0.05,0.14-0.09,0.19c-0.04,0.05-0.1,0.1-0.17,0.13
					c-0.06,0.03-0.14,0.04-0.21,0.03c-0.07-0.01-0.14-0.05-0.18-0.1c-0.04-0.05-0.06-0.11-0.07-0.17c0,0,0,0,0,0c0,0,0.01,0,0.01,0
					c0.05,0.03,0.09,0.06,0.13,0.07c0.04,0.01,0.08,0.02,0.11,0.01c0.07-0.01,0.13-0.06,0.17-0.11c0.04-0.06,0.06-0.12,0.04-0.18
					c-0.01-0.03-0.03-0.06-0.06-0.09c-0.03-0.03-0.06-0.05-0.09-0.06c-0.03-0.01-0.06-0.01-0.09-0.01c-0.03,0.01-0.06,0.02-0.1,0.05
					c-0.07,0.05-0.13,0.13-0.18,0.21c-0.05,0.08-0.1,0.17-0.14,0.26c-0.02,0.05-0.04,0.09-0.06,0.14c-0.02,0.04-0.03,0.08-0.05,0.12
					c-0.07-0.05-0.13-0.1-0.19-0.16c0,0,0,0,0,0c0.01-0.02,0.01-0.03,0.02-0.05c0.02-0.05,0.04-0.1,0.06-0.15
					c0.05-0.1,0.1-0.2,0.16-0.29c0.06-0.09,0.13-0.19,0.24-0.27c0.05-0.04,0.11-0.07,0.19-0.09c0.04-0.01,0.08-0.01,0.11-0.01
					c0.04,0,0.08,0.01,0.11,0.03c0.07,0.03,0.12,0.07,0.17,0.11c0.05,0.05,0.09,0.11,0.12,0.18C32.34,27.91,32.35,27.99,32.33,28.06
					z"/>
			</g>
			<g>
				<path class="st12" d="M33.21,28.51c0,0.11-0.02,0.21-0.05,0.31c-0.03,0.09-0.07,0.18-0.11,0.27c-0.03,0.06-0.06,0.11-0.09,0.17
					h0c-0.07-0.02-0.14-0.03-0.21-0.05c0.04-0.07,0.08-0.14,0.12-0.21c0.04-0.08,0.07-0.16,0.1-0.24c0.03-0.08,0.04-0.16,0.04-0.24
					c0-0.04-0.01-0.07-0.02-0.09c-0.01-0.02-0.03-0.04-0.05-0.06c-0.02-0.01-0.06-0.02-0.09-0.03c-0.03,0-0.06,0-0.09,0.01
					c-0.05,0.02-0.08,0.07-0.1,0.13c-0.02,0.06-0.01,0.13,0.02,0.18c0.01,0.03,0.04,0.05,0.07,0.07c0.03,0.02,0.08,0.04,0.12,0.05
					c0,0,0,0,0,0c0,0,0,0.01,0,0.01c-0.04,0.03-0.09,0.05-0.15,0.04c-0.06,0-0.12-0.02-0.17-0.06c-0.05-0.04-0.08-0.1-0.1-0.16
					c-0.02-0.06-0.02-0.12-0.01-0.18c0.01-0.06,0.04-0.12,0.08-0.17s0.1-0.09,0.16-0.11c0.06-0.02,0.13-0.02,0.18-0.02
					c0.06,0.01,0.11,0.02,0.17,0.05c0.03,0.02,0.05,0.04,0.08,0.06c0.02,0.02,0.04,0.05,0.06,0.08
					C33.2,28.4,33.21,28.46,33.21,28.51z"/>
			</g>
			<g class="st9">
				<path class="st10" d="M34.02,28.48l-0.16,0.91c0,0-0.01,0-0.02,0c0,0,0,0-0.01,0c0,0,0,0-0.01,0c0,0-0.01,0-0.01,0h0
					c0,0-0.01,0-0.01,0c0,0-0.01,0-0.01,0c-0.01,0-0.01,0-0.02,0c0,0,0,0,0,0c-0.01,0-0.01,0-0.02,0c0,0-0.01,0-0.01,0
					c-0.01,0-0.01,0-0.02,0c0,0,0,0-0.01,0c-0.01,0-0.02,0-0.04,0c-0.01,0-0.02,0-0.03,0c-0.01,0-0.02,0-0.03,0
					c-0.01,0-0.01,0-0.02,0c-0.01,0-0.03,0-0.04,0c-0.02,0-0.04,0-0.06-0.01c-0.02,0-0.03,0-0.05-0.01c-0.01,0-0.02,0-0.03,0
					c-0.01,0-0.03,0-0.04-0.01c-0.01,0-0.03,0-0.04-0.01c-0.01,0-0.03,0-0.04-0.01c-0.1-0.02-0.22-0.04-0.33-0.07
					c-0.04-0.01-0.07-0.02-0.11-0.03c-0.03-0.01-0.06-0.02-0.09-0.02c-0.06-0.02-0.11-0.03-0.17-0.05
					c-0.41-0.12-0.86-0.32-1.24-0.61c-0.07-0.05-0.13-0.1-0.19-0.16c0,0,0,0,0,0c0,0,0,0,0,0c0.01-0.05,0.19-1.18,0.51-1.78
					c0,0,0.06-0.12,0.16-0.29c0.17,0.1,0.33,0.19,0.49,0.26c0.17,0.08,0.18,0.32,0.02,0.42c-0.01,0-0.01,0.01-0.02,0.01
					c-0.31,0.2-0.27,0.66,0.07,0.82c0.24,0.11,0.47,0.18,0.62,0.22c0.04,0.01,0.04,0.08-0.01,0.08c-0.64,0.1-1.04,0.06-1.04,0.06
					C32.83,28.71,34.02,28.48,34.02,28.48z"/>
			</g>
			<g>
				<path class="st10" d="M33.86,29.48C33.86,29.48,33.86,29.48,33.86,29.48c-0.07,0-1.73-0.06-2.79-1.02
					c-0.02-0.02-0.03-0.05-0.03-0.08c0.01-0.05,0.19-1.19,0.52-1.81c0.03-0.07,0.49-1.05,1.21-1.37c0.03-0.01,0.06-0.01,0.08,0
					c0.5,0.25,1.06,0.43,1.65,0.53c0.02,0,0.05,0.02,0.06,0.04c0.01,0.02,0.02,0.05,0.02,0.07l-0.63,3.57
					C33.95,29.45,33.91,29.48,33.86,29.48z M31.24,28.35c0.88,0.77,2.21,0.91,2.54,0.94l0.6-3.4c-0.56-0.1-1.09-0.27-1.57-0.51
					c-0.64,0.32-1.07,1.25-1.08,1.26c0,0,0,0,0,0C31.46,27.17,31.28,28.12,31.24,28.35z"/>
			</g>
			<g>
				<path class="st10" d="M33.42,29.35l-0.19-0.03c0.45-2.62,0.69-3.61,0.69-3.62l0.18,0.04C34.11,25.75,33.87,26.73,33.42,29.35z"
					/>
			</g>
		</g>
		<g class="st9">
			<path class="st10" d="M39.19,24.89c-0.01,0.02-0.03,0.04-0.04,0.06c-0.37,0.52-0.97,0.92-1.74,1.17
				c-0.37,0.12-0.77,0.21-1.2,0.26c-0.27,0.03-0.56,0.05-0.86,0.05c-0.8,0-1.53-0.12-2.15-0.34c0.05-0.23,0.13-0.46,0.24-0.69
				c0,0,0.39,0.32,1.86,0.32c1.47,0,1.86-0.32,1.86-0.32c0.02,0.04,0.04,0.08,0.06,0.13c0.54-0.2,0.94-0.44,1.2-0.62c0,0,0,0,0,0
				c0.24-0.17,0.37-0.3,0.37-0.3c0.08-0.16,0.14-0.32,0.21-0.47c0.16-0.38,0.31-0.75,0.52-1.01C39.65,23.79,39.53,24.39,39.19,24.89
				z"/>
		</g>
		<g>
			<g>
				<path class="st12" d="M32.02,20.57c0,0-1.16,0.32-1.74,0.13c0,0-0.21,0.51-0.08,0.94c0,0,1.21,0,1.76-0.37L32.02,20.57z"/>
			</g>
			<g class="st9">
				<path class="st10" d="M30.39,20.74C30.39,20.74,30.39,20.73,30.39,20.74c-0.04-0.01-0.08-0.02-0.12-0.04
					c0,0-0.21,0.51-0.08,0.94c0,0,1.21,0,1.76-0.37l0.02-0.18c-0.31,0.14-0.72,0.21-1.04,0.24C30.6,21.36,30.33,21.06,30.39,20.74z"
					/>
			</g>
			<g>
				<path class="st10" d="M30.19,21.74c-0.04,0-0.08-0.03-0.09-0.07c-0.13-0.45,0.08-0.98,0.09-1c0.02-0.05,0.07-0.07,0.12-0.05
					c0.55,0.18,1.68-0.13,1.69-0.13c0.03-0.01,0.06,0,0.09,0.02c0.02,0.02,0.04,0.05,0.03,0.08l-0.07,0.7
					c0,0.03-0.02,0.05-0.04,0.07C31.43,21.73,30.24,21.74,30.19,21.74C30.19,21.74,30.19,21.74,30.19,21.74z M30.33,20.82
					c-0.04,0.14-0.12,0.45-0.07,0.73c0.26-0.01,1.14-0.06,1.6-0.33l0.05-0.52C31.61,20.77,30.83,20.93,30.33,20.82z"/>
			</g>
		</g>
		<g>
			<g>
				<path class="st12" d="M31.65,21.03c0,0-0.8,0.9-1.39,1.07c0,0,0.11,0.54,0.44,0.83c0,0,1.01-0.66,1.27-1.28L31.65,21.03z"/>
			</g>
			<g class="st9">
				<path class="st10" d="M31.86,21.43c-0.21,0.33-0.59,0.66-0.86,0.87c-0.2,0.15-0.48,0.09-0.6-0.13
					c-0.02-0.04-0.04-0.07-0.05-0.11c-0.03,0.01-0.06,0.02-0.09,0.03c0,0,0.11,0.54,0.44,0.83c0,0,1.01-0.66,1.27-1.28L31.86,21.43z
					"/>
			</g>
			<g>
				<path class="st10" d="M30.7,23.02c-0.02,0-0.04-0.01-0.06-0.02c-0.35-0.31-0.47-0.86-0.47-0.88c-0.01-0.05,0.02-0.1,0.07-0.11
					c0.55-0.15,1.33-1.03,1.34-1.04c0.02-0.02,0.05-0.03,0.08-0.03c0.03,0,0.06,0.02,0.07,0.05l0.33,0.62
					c0.01,0.03,0.01,0.05,0,0.08c-0.27,0.63-1.26,1.29-1.3,1.32C30.74,23.02,30.72,23.02,30.7,23.02z M30.37,22.16
					c0.04,0.14,0.14,0.45,0.34,0.65c0.21-0.15,0.92-0.67,1.16-1.15l-0.24-0.46C31.41,21.42,30.85,21.98,30.37,22.16z"/>
			</g>
		</g>
		<g>
			<g>
				<g>
					<g>
						<path class="st11" d="M31.53,21.41c0,0-0.5-1.64,0.14-3.11c0.12-0.28,0.42-0.44,0.72-0.38c0.4,0.08,0.99,0.29,1.61,0.89
							C34,18.81,32.29,19.24,31.53,21.41z"/>
					</g>
					<g class="st15">
						<path class="st12" d="M31.82,18.41c0.1-0.29,0.39-0.47,0.69-0.44c0.07,0.01,0.15,0.02,0.23,0.04
							c-0.12-0.04-0.24-0.07-0.34-0.09c-0.3-0.06-0.6,0.1-0.72,0.38c-0.65,1.47-0.14,3.11-0.14,3.11c0.06-0.18,0.13-0.34,0.2-0.5
							C31.6,20.32,31.49,19.35,31.82,18.41z"/>
					</g>
					<g>
						<path class="st10" d="M31.53,21.51C31.53,21.51,31.53,21.51,31.53,21.51c-0.04,0-0.08-0.03-0.09-0.07
							c-0.02-0.07-0.5-1.69,0.15-3.17c0.14-0.32,0.48-0.5,0.82-0.44c0.4,0.08,1.02,0.3,1.65,0.91c0.02,0.02,0.03,0.06,0.03,0.09
							c-0.01,0.03-0.03,0.06-0.07,0.07c0,0-0.42,0.11-0.92,0.48c-0.46,0.34-1.1,0.97-1.48,2.06C31.61,21.48,31.57,21.51,31.53,21.51
							z M32.28,18.01c-0.22,0-0.42,0.13-0.51,0.34c-0.47,1.06-0.32,2.23-0.21,2.75c0.41-0.97,1-1.55,1.45-1.87
							c0.35-0.25,0.65-0.39,0.82-0.45c-0.56-0.5-1.09-0.69-1.44-0.76C32.35,18.01,32.31,18.01,32.28,18.01z"/>
					</g>
				</g>
				<g>
					<g>
						<path class="st13" d="M31.91,20.88c0,0-0.35-1.14,0.1-2.16c0.09-0.19,0.29-0.31,0.5-0.27c0.28,0.05,0.69,0.2,1.12,0.62
							C33.63,19.07,32.44,19.37,31.91,20.88z"/>
					</g>
					<g class="st9">
						<path class="st10" d="M32.2,19.07c0.09-0.19,0.29-0.31,0.5-0.27c0.2,0.04,0.47,0.13,0.76,0.33c0.1-0.04,0.17-0.06,0.17-0.06
							c-0.43-0.41-0.84-0.57-1.12-0.62c-0.21-0.04-0.42,0.07-0.5,0.27c-0.45,1.02-0.1,2.16-0.1,2.16c0.03-0.07,0.05-0.14,0.08-0.21
							C31.95,20.24,31.95,19.64,32.2,19.07z"/>
					</g>
					<g>
						<path class="st10" d="M31.91,20.95C31.91,20.95,31.91,20.95,31.91,20.95c-0.03,0-0.06-0.02-0.06-0.05
							c-0.01-0.05-0.35-1.17,0.1-2.21c0.1-0.23,0.34-0.35,0.57-0.31c0.28,0.05,0.71,0.21,1.15,0.64c0.02,0.02,0.02,0.04,0.02,0.07
							c-0.01,0.02-0.02,0.04-0.05,0.05c-0.01,0-1.16,0.31-1.67,1.76C31.96,20.93,31.94,20.95,31.91,20.95z M32.43,18.51
							c-0.15,0-0.29,0.09-0.35,0.23c-0.32,0.73-0.22,1.54-0.15,1.91c0.46-1.11,1.27-1.5,1.57-1.61c-0.39-0.35-0.75-0.48-1-0.52
							C32.47,18.52,32.45,18.51,32.43,18.51z"/>
					</g>
				</g>
			</g>
			<g>
				<g>
					<g>
						<path class="st11" d="M39.07,21.41c0,0,0.5-1.64-0.14-3.11c-0.12-0.28-0.42-0.44-0.72-0.38c-0.4,0.08-0.99,0.29-1.61,0.89
							C36.6,18.81,38.31,19.24,39.07,21.41z"/>
					</g>
					<g class="st15">
						<path class="st12" d="M38.78,18.41c-0.1-0.29-0.39-0.47-0.69-0.44c-0.07,0.01-0.15,0.02-0.23,0.04
							c0.12-0.04,0.24-0.07,0.34-0.09c0.3-0.06,0.6,0.1,0.72,0.38c0.65,1.47,0.14,3.11,0.14,3.11c-0.06-0.18-0.13-0.34-0.2-0.5
							C39,20.32,39.11,19.35,38.78,18.41z"/>
					</g>
					<g>
						<path class="st10" d="M39.07,21.51c-0.04,0-0.08-0.03-0.09-0.06c-0.38-1.09-1.02-1.73-1.48-2.06
							c-0.5-0.37-0.92-0.48-0.93-0.48c-0.03-0.01-0.06-0.03-0.07-0.07c-0.01-0.03,0-0.07,0.03-0.09c0.63-0.62,1.25-0.84,1.65-0.91
							c0.34-0.07,0.68,0.11,0.82,0.44c0.65,1.49,0.17,3.1,0.15,3.17C39.15,21.48,39.11,21.51,39.07,21.51
							C39.07,21.51,39.07,21.51,39.07,21.51z M36.78,18.77c0.18,0.06,0.48,0.2,0.82,0.45c0.45,0.32,1.04,0.9,1.45,1.87
							c0.11-0.53,0.26-1.69-0.21-2.75c-0.11-0.24-0.36-0.38-0.62-0.33C37.87,18.08,37.34,18.27,36.78,18.77z"/>
					</g>
				</g>
				<g>
					<g>
						<path class="st13" d="M38.69,20.88c0,0,0.35-1.14-0.1-2.16c-0.09-0.19-0.29-0.31-0.5-0.27c-0.28,0.05-0.69,0.2-1.12,0.62
							C36.98,19.07,38.16,19.37,38.69,20.88z"/>
					</g>
					<g class="st9">
						<path class="st10" d="M38.41,19.07c-0.09-0.19-0.29-0.31-0.5-0.27c-0.2,0.04-0.47,0.13-0.76,0.33
							c-0.1-0.04-0.17-0.06-0.17-0.06c0.43-0.41,0.84-0.57,1.12-0.62c0.21-0.04,0.42,0.07,0.5,0.27c0.45,1.02,0.1,2.16,0.1,2.16
							c-0.03-0.07-0.05-0.14-0.08-0.21C38.66,20.24,38.66,19.64,38.41,19.07z"/>
					</g>
					<g>
						<path class="st10" d="M38.69,20.95c-0.03,0-0.05-0.02-0.06-0.04c-0.51-1.45-1.66-1.76-1.67-1.76
							c-0.02-0.01-0.04-0.02-0.05-0.05c-0.01-0.02,0-0.05,0.02-0.07c0.44-0.43,0.87-0.58,1.15-0.64c0.24-0.05,0.48,0.08,0.57,0.31
							c0.45,1.03,0.12,2.16,0.1,2.21C38.75,20.93,38.72,20.95,38.69,20.95C38.69,20.95,38.69,20.95,38.69,20.95z M37.11,19.04
							c0.3,0.11,1.11,0.5,1.57,1.61c0.07-0.37,0.18-1.17-0.15-1.91c-0.07-0.17-0.25-0.26-0.43-0.23
							C37.86,18.57,37.49,18.7,37.11,19.04z"/>
					</g>
				</g>
			</g>
			<g>
				<g>
					<path class="st11" d="M35.3,26.09c-2.91,0-4.85-1.56-4.03-3.78c0.02-0.06,0.04-0.11,0.07-0.17c0.03-0.06,0.05-0.13,0.06-0.19
						c0.1-0.56,0.77-3.31,3.9-3.31s3.8,2.75,3.9,3.31c0.01,0.07,0.03,0.13,0.06,0.19C40.24,24.45,38.29,26.09,35.3,26.09z"/>
				</g>
				<g>
					<path class="st12" d="M39.33,22.31c0,0-0.45-0.04-0.82,0.62c-0.28,0.52-1.14,0.52-1.6,0.2c-0.46-0.32-1.03-0.49-1.61-0.49
						s-1.16,0.17-1.62,0.49c-0.46,0.32-1.31,0.32-1.6-0.2c-0.36-0.66-0.82-0.62-0.82-0.62c-0.82,2.22,1.11,3.78,4.03,3.78
						S40.15,24.53,39.33,22.31z"/>
				</g>
				<g class="st9">
					<path class="st10" d="M39.35,22.36c0.34,1.88-1.45,3.16-4.05,3.16c-2.6,0-4.39-1.28-4.05-3.16c-0.76,2.19,1.16,3.73,4.05,3.73
						C38.19,26.09,40.12,24.55,39.35,22.36z"/>
				</g>
				<g class="st9">
					<path class="st10" d="M36.92,23.25c0,0-0.16,0.38-0.63,0.35c-0.18-0.01-0.31-0.06-0.41-0.11c-0.04-0.02-0.04-0.07-0.01-0.1
						c0.19-0.14,0.31-0.34,0.25-0.52c-0.1-0.32-0.82-0.3-0.82-0.3s-0.72-0.02-0.82,0.3c-0.06,0.17,0.06,0.37,0.25,0.52
						c0.03,0.02,0.03,0.08-0.01,0.1c-0.09,0.06-0.23,0.1-0.41,0.11c-0.47,0.03-0.63-0.35-0.63-0.35s-0.21,0.38,0.11,0.71
						c0.03,0.03,0.05,0.06,0.06,0.1c0.09,0.26,0.51,1.32,1.45,1.32s1.36-1.06,1.45-1.32c0.01-0.04,0.03-0.07,0.06-0.1
						C37.12,23.63,36.92,23.25,36.92,23.25z"/>
				</g>
				<g class="st15">
					<path class="st12" d="M39.26,22.14c-0.03-0.06-0.05-0.13-0.06-0.19c-0.1-0.56-0.77-3.31-3.9-3.31s-3.8,2.75-3.9,3.31
						c-0.01,0.07-0.03,0.13-0.06,0.19c-0.02,0.06-0.05,0.11-0.07,0.17c-0.15,0.4-0.2,0.77-0.18,1.12c0.01-0.27,0.07-0.56,0.18-0.86
						c0.02-0.06,0.04-0.11,0.07-0.17c0.03-0.06,0.05-0.13,0.06-0.19c0.09-0.47,0.56-2.47,2.55-3.11c0,0,0,0,0,0
						c0.02,0.1,0.24,0.14,0.5,0.09c0.26-0.05,0.46-0.16,0.44-0.26c0-0.01,0-0.01-0.01-0.02c0.13-0.01,0.27-0.02,0.41-0.02
						c3.14,0,3.8,2.75,3.9,3.31c0.01,0.07,0.03,0.13,0.06,0.19c0.15,0.36,0.23,0.7,0.25,1.02C39.54,23.03,39.46,22.6,39.26,22.14z"
						/>
				</g>
				<g>
					<path class="st10" d="M33.97,22.44l-0.05-0.05c-0.02-0.02-0.04-0.03-0.05-0.05c-0.04-0.03-0.07-0.07-0.11-0.1
						c-0.08-0.06-0.16-0.12-0.25-0.17c-0.04-0.02-0.09-0.04-0.14-0.06c-0.05-0.02-0.1-0.03-0.15-0.04c-0.1-0.02-0.21-0.03-0.32-0.02
						l0,0c-0.03,0-0.05-0.02-0.06-0.05c0-0.02,0.01-0.04,0.03-0.05c0.11-0.05,0.23-0.08,0.36-0.08c0.12-0.01,0.25,0.01,0.37,0.05
						c0.12,0.04,0.24,0.09,0.34,0.16c0.05,0.03,0.1,0.07,0.15,0.11c0.02,0.02,0.05,0.04,0.07,0.07c0.01,0.01,0.02,0.02,0.03,0.04
						c0.01,0.01,0.01,0.01,0.02,0.02l0.02,0.02c0.06,0.07,0.05,0.18-0.03,0.24c-0.07,0.05-0.16,0.05-0.23-0.01L33.97,22.44z"/>
				</g>
				<g>
					<path class="st10" d="M36.36,22.22l0.02-0.02c0.01-0.01,0.01-0.01,0.02-0.02c0.01-0.01,0.02-0.02,0.03-0.04
						c0.02-0.02,0.04-0.05,0.07-0.07c0.05-0.04,0.1-0.08,0.15-0.11c0.11-0.07,0.22-0.12,0.34-0.16c0.12-0.04,0.25-0.05,0.37-0.05
						c0.12,0.01,0.25,0.03,0.36,0.08c0.03,0.01,0.04,0.04,0.03,0.07c-0.01,0.02-0.03,0.03-0.05,0.03l0,0c-0.11,0-0.22,0-0.32,0.02
						c-0.05,0.01-0.1,0.03-0.15,0.04c-0.05,0.02-0.09,0.04-0.14,0.06c-0.09,0.05-0.17,0.1-0.25,0.17c-0.04,0.03-0.08,0.06-0.11,0.1
						c-0.02,0.02-0.04,0.03-0.05,0.05l-0.05,0.05l-0.01,0.01c-0.07,0.07-0.18,0.07-0.24,0C36.31,22.39,36.31,22.29,36.36,22.22z"/>
				</g>
				<g>
					<path class="st10" d="M35.3,23.47c0.45,0,0.88-0.37,0.78-0.67c-0.09-0.3-0.78-0.28-0.78-0.28s-0.69-0.02-0.78,0.28
						C34.43,23.1,34.86,23.47,35.3,23.47z"/>
				</g>
				<g>
					<path class="st10" d="M35.4,23.46c-0.01,0.02-0.01,0.03-0.02,0.04c-0.01,0.01-0.01,0.02-0.02,0.04
						c-0.01,0.02-0.03,0.05-0.04,0.07c-0.03,0.04-0.06,0.08-0.09,0.12c-0.07,0.08-0.15,0.15-0.24,0.2
						c-0.09,0.05-0.19,0.09-0.29,0.11c-0.1,0.02-0.21,0.02-0.31,0.01c-0.1-0.01-0.2-0.03-0.29-0.07c-0.1-0.04-0.19-0.09-0.26-0.16
						c-0.08-0.07-0.14-0.16-0.16-0.26c-0.03-0.1-0.03-0.2,0.01-0.3c0,0,0,0,0.01,0c0,0,0,0,0,0l0,0c0.03,0.09,0.06,0.17,0.1,0.25
						c0.04,0.07,0.09,0.14,0.15,0.19c0.06,0.05,0.14,0.09,0.22,0.11c0.08,0.02,0.16,0.04,0.25,0.04c0.08,0,0.17,0,0.25-0.02
						c0.04-0.01,0.08-0.02,0.11-0.04c0.04-0.01,0.07-0.03,0.11-0.05c0.07-0.04,0.13-0.09,0.19-0.16c0.03-0.03,0.05-0.06,0.08-0.1
						c0.01-0.02,0.02-0.03,0.03-0.05c0.01-0.01,0.01-0.02,0.01-0.03c0-0.01,0.01-0.02,0.01-0.02l0-0.01
						c0.03-0.05,0.09-0.07,0.14-0.05C35.4,23.34,35.42,23.4,35.4,23.46z"/>
				</g>
				<g>
					<path class="st10" d="M35.4,23.37c0,0,0.01,0.02,0.01,0.02c0,0.01,0.01,0.02,0.01,0.03c0.01,0.02,0.02,0.03,0.03,0.05
						c0.02,0.03,0.05,0.07,0.08,0.1c0.05,0.06,0.12,0.11,0.19,0.16c0.03,0.02,0.07,0.04,0.11,0.05c0.04,0.02,0.08,0.03,0.11,0.04
						c0.08,0.02,0.16,0.02,0.25,0.02c0.08,0,0.17-0.02,0.25-0.04c0.08-0.02,0.15-0.06,0.22-0.11c0.06-0.05,0.11-0.11,0.15-0.19
						c0.04-0.07,0.07-0.16,0.1-0.25l0,0c0,0,0,0,0,0c0,0,0,0,0,0c0.04,0.09,0.04,0.2,0.01,0.3c-0.03,0.1-0.09,0.19-0.16,0.26
						c-0.08,0.07-0.17,0.13-0.26,0.16c-0.1,0.04-0.19,0.06-0.29,0.07c-0.1,0.01-0.21,0.01-0.31-0.01c-0.1-0.02-0.2-0.06-0.29-0.11
						c-0.09-0.05-0.17-0.12-0.24-0.2c-0.03-0.04-0.06-0.08-0.09-0.12c-0.01-0.02-0.03-0.04-0.04-0.07
						c-0.01-0.01-0.01-0.02-0.02-0.04c-0.01-0.01-0.01-0.02-0.02-0.04c-0.02-0.05,0-0.12,0.06-0.14
						C35.31,23.3,35.37,23.32,35.4,23.37L35.4,23.37z"/>
				</g>
				<g>
					<path class="st10" d="M36.51,23.87c0,0-0.26,1.41-1.21,1.41c-0.41,0-0.7-0.27-0.88-0.57c-0.25-0.39-0.33-0.85-0.33-0.85
						s0.74,0.32,1.21-0.39C35.77,24.19,36.51,23.87,36.51,23.87z"/>
				</g>
				<g>
					<path class="st16" d="M35.3,24.23c-0.71,0-0.88,0.48-0.88,0.48c0.19,0.3,0.47,0.57,0.88,0.57c0.41,0,0.7-0.27,0.88-0.57
						C36.19,24.71,36.02,24.23,35.3,24.23z"/>
				</g>
				<g class="st9">
					<path class="st10" d="M35.3,24.85c-0.32,0-0.57-0.14-0.76-0.33c-0.09,0.1-0.12,0.19-0.12,0.19c0.19,0.3,0.47,0.57,0.88,0.57
						c0.41,0,0.7-0.27,0.88-0.57c0,0-0.03-0.09-0.12-0.19C35.87,24.72,35.62,24.85,35.3,24.85z"/>
				</g>
				<g>
					<path class="st10" d="M35.3,25.37c-1.02,0-1.29-1.43-1.31-1.49c-0.01-0.03,0.01-0.07,0.03-0.09c0.03-0.02,0.06-0.03,0.1-0.01
						c0.03,0.01,0.67,0.28,1.1-0.36c0.02-0.03,0.05-0.04,0.08-0.04c0.03,0,0.06,0.02,0.08,0.04c0.42,0.64,1.07,0.37,1.1,0.36
						c0.03-0.01,0.07-0.01,0.1,0.01c0.03,0.02,0.04,0.06,0.03,0.09C36.6,23.94,36.32,25.37,35.3,25.37z M34.22,24
						c0.1,0.35,0.4,1.18,1.08,1.18c0.68,0,0.99-0.83,1.08-1.18c-0.25,0.05-0.72,0.08-1.08-0.37C34.94,24.08,34.47,24.06,34.22,24z"
						/>
				</g>
				<g>
					<ellipse class="st12" cx="35.3" cy="22.71" rx="0.3" ry="0.07"/>
				</g>
				<g>
					
						<ellipse transform="matrix(0.5795 -0.815 0.815 0.5795 -3.0616 36.759)" class="st12" cx="34.09" cy="21.35" rx="0.23" ry="0.39"/>
				</g>
				<g>
					<path class="st12" d="M36.19,21.57c0.07,0.1,0.28,0.09,0.45-0.04c0.18-0.13,0.26-0.31,0.19-0.42s-0.25-0.09-0.43,0.04
						C36.23,21.28,36.12,21.47,36.19,21.57z"/>
				</g>
				<g>
					<path class="st10" d="M35.3,26.18c-1.8,0-3.26-0.6-3.92-1.6c-0.47-0.71-0.51-1.57-0.12-2.49c0.02-0.05,0.04-0.11,0.05-0.17
						c0.1-0.57,0.78-3.39,4-3.39c3.21,0,3.89,2.82,4,3.39c0.01,0.06,0.03,0.12,0.05,0.17c0.39,0.92,0.35,1.78-0.12,2.49
						C38.57,25.59,37.1,26.18,35.3,26.18z M35.3,18.72c-3.06,0-3.71,2.7-3.81,3.24c-0.01,0.07-0.03,0.15-0.06,0.21
						c-0.36,0.86-0.33,1.65,0.11,2.31C32.16,25.43,33.57,26,35.3,26c1.73,0,3.14-0.57,3.77-1.51c0.43-0.65,0.47-1.45,0.11-2.31
						c-0.03-0.07-0.05-0.14-0.06-0.21C39.01,21.42,38.37,18.72,35.3,18.72z"/>
				</g>
			</g>
		</g>
		<g>
			<g>
				<circle class="st12" cx="33.1" cy="25.4" r="0.45"/>
			</g>
			<g>
				<path class="st10" d="M33.1,25.94c-0.3,0-0.54-0.24-0.54-0.54c0-0.3,0.24-0.54,0.54-0.54s0.54,0.24,0.54,0.54
					C33.64,25.7,33.4,25.94,33.1,25.94z M33.1,25.04c-0.2,0-0.36,0.16-0.36,0.36c0,0.2,0.16,0.36,0.36,0.36
					c0.2,0,0.36-0.16,0.36-0.36C33.46,25.2,33.3,25.04,33.1,25.04z"/>
			</g>
		</g>
		<g>
			<g>
				<path class="st11" d="M33.36,27.7c-0.29,0.14-0.55,0.23-0.77,0.26c-0.33,0.06-0.58,0.02-0.78-0.06
					c-0.33-0.13-0.55-0.45-0.58-0.81c-0.1-1.21,1.08-1.75,1.08-1.75c0.08,0.06,0.38,0.21,0.38,0.21s0,0,0,0
					C34.42,24.38,34.98,26.91,33.36,27.7z"/>
			</g>
			<g>
				<path class="st12" d="M33.43,27.76c-0.29,0.14-0.55,0.23-0.77,0.26c-1.16-0.39-0.34-1.54-0.34-1.54
					c0.16-0.73,0.43-0.86,0.43-0.86s0,0,0,0C34.48,24.44,35.04,26.97,33.43,27.76z"/>
			</g>
			<g class="st9">
				<path class="st10" d="M33.44,27.33c-0.29,0.14-0.55,0.23-0.77,0.26c-0.33,0.06-0.58,0.02-0.78-0.06
					c-0.33-0.13-0.55-0.45-0.58-0.81c-0.01-0.11-0.01-0.21,0-0.3c-0.07,0.19-0.1,0.41-0.08,0.66c0.03,0.36,0.25,0.67,0.58,0.81
					c0.19,0.08,0.45,0.12,0.78,0.06c0.22-0.04,0.48-0.12,0.77-0.26c0.61-0.3,0.9-0.84,0.95-1.34C34.19,26.74,33.9,27.11,33.44,27.33
					z"/>
			</g>
			<g>
				<path class="st10" d="M32.29,28.08c-0.18,0-0.35-0.03-0.51-0.09c-0.36-0.14-0.61-0.49-0.64-0.89c-0.04-0.52,0.14-1.01,0.53-1.4
					c0.29-0.29,0.59-0.43,0.6-0.44c0.03-0.01,0.06-0.01,0.09,0.01c0.06,0.04,0.23,0.13,0.32,0.18c0.47-0.31,0.91-0.38,1.24-0.2
					c0.31,0.17,0.5,0.55,0.49,1c-0.01,0.5-0.28,1.17-1.01,1.53C32.99,27.98,32.62,28.08,32.29,28.08z M32.31,25.46
					c-0.09,0.05-0.31,0.17-0.51,0.38c-0.35,0.36-0.51,0.78-0.47,1.25c0.03,0.32,0.23,0.61,0.53,0.73c0.38,0.15,0.88,0.09,1.47-0.2
					c0.65-0.32,0.89-0.91,0.9-1.36c0.01-0.38-0.14-0.7-0.39-0.83c-0.28-0.15-0.67-0.07-1.09,0.22c-0.03,0.02-0.07,0.02-0.1,0.01
					C32.63,25.64,32.42,25.53,32.31,25.46z"/>
			</g>
			<g>
				<path class="st10" d="M32.74,25.64c0,0-0.01,0.01-0.02,0.02c-0.01,0.01-0.02,0.01-0.02,0.02c-0.02,0.02-0.03,0.03-0.05,0.05
					c-0.03,0.03-0.06,0.07-0.08,0.11c-0.05,0.08-0.09,0.17-0.13,0.26l-0.03,0.07l-0.02,0.07l-0.01,0.03l-0.01,0.04
					c-0.01,0.02-0.01,0.05-0.02,0.07c-0.01,0.05-0.03,0.1-0.04,0.15c-0.01,0.05-0.02,0.1-0.04,0.15l0,0c0,0.01-0.01,0.01-0.01,0.01
					c0,0-0.01-0.01-0.01-0.01c-0.01-0.05-0.01-0.1-0.01-0.16c0-0.03,0-0.05,0-0.08c0-0.03,0-0.05,0-0.08
					c0.01-0.1,0.03-0.21,0.06-0.31c0.03-0.1,0.07-0.2,0.12-0.3c0.03-0.05,0.06-0.09,0.09-0.14c0.02-0.02,0.04-0.04,0.06-0.06
					c0.01-0.01,0.02-0.02,0.03-0.03c0.01-0.01,0.02-0.02,0.04-0.03c0.04-0.03,0.1-0.02,0.13,0.02
					C32.79,25.54,32.79,25.6,32.74,25.64L32.74,25.64z"/>
			</g>
			<g>
				<path class="st10" d="M33.29,25.33c-0.01,0.05-0.03,0.1-0.05,0.15c-0.02,0.05-0.03,0.1-0.05,0.15c-0.02,0.05-0.04,0.1-0.06,0.15
					c-0.02,0.05-0.04,0.1-0.07,0.15l0,0c0,0.01-0.01,0.01-0.02,0c0,0-0.01-0.01-0.01-0.01c-0.01-0.06-0.01-0.11-0.01-0.16
					c0-0.05,0.01-0.11,0.01-0.16c0.01-0.05,0.02-0.11,0.03-0.16c0.01-0.05,0.03-0.1,0.05-0.16c0.02-0.05,0.07-0.07,0.12-0.05
					C33.27,25.24,33.3,25.28,33.29,25.33L33.29,25.33z"/>
			</g>
			<g>
				<path class="st10" d="M34.23,25.61c-0.01,0.05-0.03,0.09-0.05,0.14c-0.02,0.05-0.04,0.09-0.06,0.14
					c-0.02,0.05-0.04,0.09-0.07,0.14c-0.02,0.04-0.05,0.09-0.08,0.13l0,0c-0.01,0.01-0.02,0.01-0.03,0.01c0,0-0.01-0.01-0.01-0.01
					c-0.01-0.05-0.01-0.11,0-0.16c0-0.05,0.01-0.1,0.02-0.15c0.01-0.05,0.02-0.1,0.03-0.15c0.01-0.05,0.03-0.1,0.05-0.14
					c0.02-0.05,0.08-0.07,0.12-0.05C34.22,25.52,34.24,25.57,34.23,25.61L34.23,25.61z"/>
			</g>
		</g>
		<g>
			<g>
				<path class="st14" d="M32.69,25.56c0,0-0.2,0.13-0.33,0.47c-0.03,0.08-0.05,0.17-0.07,0.27c0,0-0.43-0.22-0.95-0.03
					c0,0,0.05-0.16,0.17-0.36c0.14-0.22,0.38-0.48,0.76-0.6C32.27,25.32,32.41,25.44,32.69,25.56z"/>
			</g>
			<g>
				<path class="st12" d="M32.36,26.03c-0.03,0.08-0.05,0.17-0.07,0.27c0,0-0.43-0.22-0.95-0.03c0,0,0.05-0.16,0.17-0.36
					c0,0,0,0,0,0S31.97,25.79,32.36,26.03C32.36,26.03,32.36,26.03,32.36,26.03z"/>
			</g>
			<g class="st9">
				<path class="st10" d="M32.27,25.32c-0.1,0.03-0.19,0.07-0.27,0.12c0.04,0.03,0.11,0.06,0.18,0.1c0.07,0.03,0.08,0.12,0.03,0.18
					c-0.07,0.08-0.15,0.19-0.21,0.37c-0.01,0.04-0.03,0.08-0.04,0.13c0.2,0.03,0.33,0.09,0.33,0.09c0.02-0.1,0.04-0.19,0.07-0.27
					c0.12-0.34,0.33-0.47,0.33-0.47C32.41,25.44,32.27,25.32,32.27,25.32z"/>
			</g>
			<g>
				<path class="st10" d="M32.31,26.11C31.96,25.9,31.53,26,31.53,26l-0.05-0.18c0.02-0.01,0.51-0.13,0.92,0.12L32.31,26.11z"/>
			</g>
			<g>
				<path class="st10" d="M32.29,26.4c-0.01,0-0.03,0-0.04-0.01c0,0-0.4-0.19-0.88-0.02c-0.03,0.01-0.07,0-0.1-0.02
					c-0.03-0.02-0.04-0.06-0.03-0.09c0.01-0.03,0.23-0.79,0.99-1.02c0.03-0.01,0.06,0,0.09,0.02c0,0,0.14,0.11,0.4,0.23
					c0.03,0.01,0.05,0.04,0.06,0.08c0,0.03-0.01,0.07-0.04,0.09c-0.01,0.01-0.28,0.19-0.36,0.68c0,0.03-0.02,0.06-0.05,0.07
					C32.32,26.4,32.3,26.4,32.29,26.4z M31.78,26.11c0.19,0,0.34,0.04,0.44,0.07c0.07-0.3,0.2-0.49,0.3-0.59
					c-0.13-0.07-0.22-0.13-0.27-0.16c-0.43,0.15-0.65,0.5-0.75,0.71C31.59,26.12,31.69,26.11,31.78,26.11z"/>
			</g>
		</g>
		<g>
			<g>
				<path class="st12" d="M35.3,19.33c2.88,0,3.52,1.26,3.52,1.26c0.24,0.6,0.31,1.05,0.31,1.05s-0.68-1.32-3.83-1.32
					c-3.15,0-3.83,1.32-3.83,1.32s0.07-0.45,0.31-1.05C31.78,20.59,32.42,19.33,35.3,19.33z"/>
			</g>
			<g>
				<circle class="st17" cx="35.3" cy="19.82" r="0.3"/>
			</g>
			<g>
				<path class="st10" d="M39.14,21.74c-0.03,0-0.07-0.02-0.08-0.05c0,0-0.17-0.32-0.72-0.63c-0.5-0.29-1.44-0.64-3.03-0.64
					c-3.06,0-3.74,1.26-3.75,1.27c-0.02,0.04-0.07,0.06-0.11,0.05c-0.04-0.01-0.07-0.06-0.06-0.1c0-0.02,0.07-0.47,0.32-1.07
					c0,0,0,0,0-0.01c0.01-0.01,0.18-0.34,0.72-0.67c0.48-0.29,1.38-0.64,2.89-0.64c1.51,0,2.41,0.35,2.89,0.64
					c0.54,0.33,0.71,0.65,0.72,0.67c0,0,0,0,0,0.01c0.25,0.6,0.32,1.05,0.32,1.07c0.01,0.05-0.02,0.09-0.06,0.1
					C39.16,21.73,39.15,21.74,39.14,21.74z M35.3,20.22c1.65,0,2.62,0.37,3.15,0.68c0.23,0.13,0.39,0.26,0.51,0.38
					c-0.05-0.17-0.12-0.4-0.22-0.64c-0.02-0.03-0.18-0.32-0.66-0.6c-0.46-0.28-1.32-0.61-2.78-0.61c-2.73,0-3.4,1.14-3.44,1.21
					c-0.1,0.25-0.17,0.47-0.22,0.64c0.12-0.11,0.28-0.25,0.51-0.38C32.68,20.59,33.65,20.22,35.3,20.22z"/>
			</g>
		</g>
	</g>
</g>
<g>
	<g>
		<linearGradient id="SVGID_1_" gradientUnits="userSpaceOnUse" x1="8.2241" y1="27.9288" x2="22.9671" y2="18.3159">
			<stop  offset="0" style="stop-color:#BEE2E8"/>
			<stop  offset="1" style="stop-color:#0F682F"/>
		</linearGradient>
		<path class="st18" d="M9.25,27.34c0.16,0.23,0.32,0.45,0.49,0.62c0.03,0.03,0.06,0.07,0.08,0.1c0-0.02,0.04,0.02,0.11,0.09
			c1.34,1.48,3.38,2.49,5.46,2.51c0.01-0.01,0.04-0.02,0.09-0.02c0.14-0.02,0.43-0.03,0.72-0.05l0.22-0.01
			c0.9-0.07,1.78-0.32,2.59-0.71c0.16-0.09,0.34-0.2,0.54-0.32c0.64-0.44,1.22-0.97,1.71-1.58c-0.04,0.03-0.06,0.05-0.07,0.04
			c-0.01-0.03,0.1-0.17,0.23-0.34c0.07-0.08,0.13-0.17,0.19-0.26c-0.18,0.25-0.38,0.48-0.58,0.7c-0.03,0.03-0.06,0.06-0.09,0.09
			c-0.23,0.25-0.48,0.47-0.74,0.69c-2.32,1.91-5.64,2.16-8.17,0.8c-0.04-0.02-0.11-0.06-0.14-0.08c-0.02-0.02-0.01-0.02,0.03,0
			c1.61,0.8,3.24,0.99,5.14,0.58c2.26-0.52,4.16-2.19,4.96-4.35c0.89-2.24,0.52-4.76-0.99-6.66c-1.02-1.29-2.46-2.14-4-2.45
			c-1.54-0.3-3.18-0.06-4.56,0.71c-1.04,0.58-1.83,1.36-2.02,1.4c-0.12,0.02-0.01-0.25,0.33-0.65c-0.08,0.07-0.15,0.14-0.22,0.22
			c-0.12,0.11-0.22,0.24-0.34,0.35c-0.31,0.35-0.55,0.66-0.71,0.86c-0.07,0.09-0.15,0.18-0.22,0.28c-0.32,0.36-0.68,1.04-0.87,1.4
			l-0.02-0.1l-0.04,0.09c-0.11,0.29-0.19,0.49-0.24,0.56l-0.04-0.04c-0.05-0.08-0.06-0.24-0.05-0.51c-0.02,0-0.04-0.03-0.04-0.1
			c-0.11,0.2-0.18,0.3-0.2,0.11c-0.05,0.13-0.06,0.1-0.04-0.06c0.01-0.06,0.03-0.12,0.04-0.19l0,0c-0.03,0.07-0.04,0.09-0.08,0.19
			c-0.04,0.13-0.06,0.21-0.06,0.21c-0.09,0.36-0.08,0.36-0.14,0.67c-0.06,0.27-0.09,0.44-0.09,0.44c-0.11,0.3-0.11,0.3-0.15,0.25
			c0-0.02,0-0.04-0.01-0.06c-0.03,0.25-0.02,0.27-0.03,0.33c-0.01,0.07-0.02,0.12-0.02,0.12c-0.02,0.01-0.02,0.01-0.03,0.05
			c-0.01,0.01-0.02,0.01-0.02,0.01c-0.02-0.14-0.02-0.14-0.03-0.14c-0.01-0.03-0.01-0.08-0.01-0.08c0-0.17,0-0.23,0-0.26
			c0.08-0.35,0.08-0.35,0.08-0.35c-0.01-0.08-0.01-0.08-0.01-0.08c0.03-0.08,0.03-0.08,0.03-0.08c-0.03,0.04-0.03,0.04-0.03,0.04
			c0.04-0.18,0.04-0.18,0.04-0.18c-0.05,0.2-0.05,0.2-0.05,0.2c0.06-0.42,0.06-0.42,0.09-0.58c0.03-0.17,0.06-0.32,0.06-0.34
			c-0.01,0.01-0.02,0.01-0.02,0.01c0.11-0.44,0.11-0.44,0.25-0.86c0.02-0.04,0.03-0.07,0.05-0.09c0.01-0.04,0.03-0.12,0.06-0.2
			l0.09-0.21l0.02-0.05l0,0c0.02-0.08,0.04-0.13,0.07-0.18c0.01-0.04,0.01-0.04,0.01-0.04l0,0c0.05-0.13,0.11-0.31,0.34-0.78
			c0.07-0.12,0.14-0.23,0.21-0.33l-0.07,0.09c-0.04,0.06-0.03-0.01-0.05,0.02c-0.54,0.81-0.96,1.81-1.17,2.85
			c-0.03,0.19-0.07,0.36-0.09,0.39c-0.02,0.02-0.02-0.11,0.02-0.31c0.13-1.07,0.54-2.24,1.2-3.26c0.66-1.02,1.57-1.89,2.51-2.47
			c0.49-0.32,1.01-0.59,1.55-0.81l-0.08,0.02c0.14-0.05,0.29-0.1,0.43-0.15l0.05-0.02c-0.11,0.03-0.22,0.06-0.33,0.09
			c-0.08,0.03-0.15,0.05-0.23,0.08c-1.25,0.54-2.31,1.25-3.21,2.24c-0.48,0.53-0.86,1.03-1.2,1.62c-0.08,0.16-0.15,0.26-0.15,0.23
			c0-0.02,0.06-0.18,0.14-0.33c0.53-1.02,1.33-1.99,2.25-2.71c0.92-0.73,1.95-1.21,2.83-1.43c0.39-0.14,0.78-0.22,1.11-0.26l0.02,0
			c-0.09,0-0.17,0.02-0.25,0.02c0.3-0.06,0.47-0.06,0.75-0.09c-0.03-0.01-0.07-0.02-0.11-0.03c1.51-0.21,3.19-0.02,4.48,0.55
			c0.05,0.02,0.1,0.04,0.15,0.06c0.57,0.2,1.13,0.45,1.73,0.86c-0.2-0.14-0.4-0.27-0.61-0.4c0.46,0.25,0.9,0.53,1.33,0.9
			c1.19,0.97,2.05,2.49,2.24,3.26c1.21,2.64,0.97,5.87-0.61,8.31c-0.08,0.13-0.16,0.23-0.19,0.25c-0.02,0,0.03-0.08,0.11-0.21
			c1.11-1.74,1.59-3.91,1.28-5.97c0.21,1.72-0.1,3.52-0.92,5.09c-0.1,0.2-0.21,0.4-0.33,0.6c-0.12,0.19-0.25,0.38-0.38,0.55
			c-1.35,1.82-3.31,3.04-5.6,3.43c-1.95,0.31-3.77,0.03-5.54-0.89c-2.47-1.31-4.14-3.66-4.53-6.43c-0.06-0.37-0.05-0.72-0.02-0.76
			c0.03-0.05,0.07,0.22,0.11,0.59c0.37,2.87,2.26,5.42,4.82,6.64c2.56,1.25,5.76,1.14,8.27-0.41c0.54-0.33,1.04-0.72,1.48-1.15
			c-0.01,0-0.02,0-0.02,0c-0.01-0.01,0.02-0.06,0.08-0.14c-0.5,0.49-1.06,0.93-1.67,1.28c-1.67,1.04-3.74,1.5-5.82,1.11
			c-1.43-0.27-2.63-0.88-3.66-1.72c-1.34-1.02-2.38-2.44-2.91-4.06c-0.03-0.06-0.04-0.13-0.04-0.16c0-0.03,0.01,0.01,0.04,0.07
			c0.38,1.11,1,2.16,1.82,3.04c-0.11-0.16-0.16-0.26-0.13-0.26c0.03-0.01,0.15,0.09,0.3,0.24c-0.18-0.2-0.35-0.41-0.51-0.62
			c-0.1-0.14-0.16-0.25-0.15-0.25c0.01-0.01,0.1,0.09,0.19,0.22c0.64,0.87,1.46,1.61,2.39,2.16c1.13,0.65,2.4,1.02,3.69,1.08
			c-0.18-0.03-0.31-0.07-0.37-0.1l0,0c-0.2-0.03-0.39-0.04-0.59-0.08c-1.79-0.27-3.52-1.2-4.75-2.61c-1.24-1.4-1.97-3.27-1.99-5.17
			c0-0.07,0-0.14,0.01-0.14c0.01,0,0.01,0.06,0.01,0.12c0.01,1.14,0.27,2.28,0.76,3.31l0,0C8.3,26.67,8.3,26.66,8.33,26.7
			c0.02,0.04,0.06,0.12,0.08,0.16c0.02,0.05,0.01,0.05-0.01,0.01c0.94,1.9,2.65,3.36,4.61,4.01c-1.8-0.63-3.36-1.93-4.29-3.59
			c-0.11-0.17-0.21-0.36-0.31-0.54c-0.03-0.05-0.05-0.12-0.06-0.15c0-0.02,0.02,0.02,0.05,0.07c0.03,0.05,0.05,0.11,0.08,0.16
			c-0.16-0.33-0.23-0.6-0.19-0.6c0.04,0.01,0.17,0.28,0.34,0.61c0.45,0.88,1.06,1.67,1.79,2.33l0.24,0.2
			c0.09,0.06,0.17,0.12,0.26,0.19c-1.2-0.94-2.11-2.22-2.6-3.65c-0.04-0.12-0.07-0.23-0.06-0.24c0.01-0.01,0.05,0.09,0.1,0.21
			c0.9,2.48,3.15,4.42,5.75,4.94c0.86,0.12,1.73,0.11,2.59-0.05c-0.11,0.01-0.22,0.03-0.33,0.03c-2.78,0.22-5.34-0.85-6.99-3.11
			c-0.04-0.06-0.07-0.11-0.07-0.12c0-0.01,0.03,0.03,0.07,0.08c0.79,1.1,1.8,1.89,3,2.45c1,0.46,2.04,0.67,3.05,0.67
			c-2.06-0.06-4.03-0.93-5.42-2.47c-0.06-0.07-0.12-0.14-0.15-0.19c-0.01,0-0.02-0.01-0.04-0.03c-0.17-0.19-0.36-0.41-0.52-0.65
			c-0.03-0.05-0.07-0.11-0.08-0.13C9.19,27.27,9.21,27.29,9.25,27.34z M10.74,16.58c-0.02,0.01-0.04,0.02-0.05,0.03
			c0.05-0.03,0.11-0.07,0.17-0.11c0,0,0,0,0.26-0.12C11.11,16.38,10.93,16.48,10.74,16.58z M8.59,19.29L8.59,19.29
			c-0.06,0.07-0.1,0.12-0.1,0.12C8.53,19.36,8.56,19.32,8.59,19.29z M24.26,23.82c0.08-1.24-0.1-2.48-0.52-3.64
			c0.11,0.28,0.21,0.57,0.29,0.86C24.26,21.94,24.34,22.88,24.26,23.82z M8.92,18.12c0.22-0.24,0.41-0.41,0.59-0.56
			c0.14-0.16,0.29-0.32,0.46-0.47c0.44-0.41,0.92-0.75,1.42-1.04c-0.07,0.02,0.05-0.04,0.11-0.08l0.19-0.11
			c-0.55,0.28-1.07,0.63-1.55,1.03C9.69,17.25,9.26,17.7,8.92,18.12z M7.33,22.09c0,0.02-0.01,0.03-0.01,0.05c0,0,0,0-0.01-0.12
			C7.3,22.02,7.31,22.05,7.33,22.09z M7.35,22.27l0.01-0.09C7.37,22.22,7.36,22.24,7.35,22.27z M7.51,21.48
			c-0.02,0.04-0.03,0.07-0.04,0.11C7.51,21.48,7.51,21.48,7.51,21.48z M8.39,21.15c-0.02-0.1-0.03-0.21-0.04-0.31
			c0,0.11,0.01,0.22,0.03,0.34L8.39,21.15z"/>
	</g>
	<g>
		<rect x="8.39" y="11.43" class="st19" width="14.58" height="12.74"/>
		<path class="st20" d="M14.24,15.09c-0.74,0.29-1.38,0.6-1.92,0.91c-0.18-0.11-0.33-0.24-0.45-0.4s-0.26-0.3-0.43-0.42
			c0.08-0.1,0.28-0.21,0.6-0.33c0.32-0.12,0.67-0.24,1.05-0.36c0.38-0.12,0.75-0.22,1.1-0.31c0.35-0.09,0.59-0.16,0.73-0.19
			c0.18-0.39,0.41-0.45,0.7-0.18c0.25,0.01,0.5,0.11,0.76,0.3c0.26,0.19,0.25,0.31-0.02,0.36C15.69,14.58,14.99,14.8,14.24,15.09z
			 M15.25,20.82c-0.08,0.25-0.13,0.47-0.14,0.65c-0.01,0.16-0.21,0.31-0.58,0.45c-0.38,0.14-0.65,0.21-0.83,0.21
			c0.04,0.19,0.04,0.43,0.01,0.71c-0.03,0.29-0.19,0.45-0.47,0.49c-0.04-0.33-0.15-0.7-0.34-1.12s-0.32-0.83-0.41-1.22
			c-0.08-0.09-0.17-0.19-0.25-0.28c-0.09-0.1-0.06-0.2,0.08-0.31c0.02-0.05,0.16-0.12,0.41-0.21c0.25-0.08,0.53-0.17,0.83-0.25
			c0.3-0.08,0.58-0.16,0.85-0.22c0.26-0.06,0.42-0.1,0.46-0.12c0.22-0.34,0.44-0.39,0.67-0.16c0.22,0.23,0.24,0.48,0.04,0.75
			C15.44,20.36,15.33,20.57,15.25,20.82z M14.74,16.84c-0.31,0.1-0.63,0.2-0.97,0.28c-0.34,0.08-0.65,0.13-0.92,0.15
			c-0.27,0.01-0.41-0.06-0.41-0.22c0.37-0.18,0.74-0.36,1.12-0.54c0.38-0.18,0.73-0.38,1.06-0.61c0.25,0,0.49,0.07,0.72,0.22
			c0.22,0.15,0.21,0.32-0.03,0.52C15.25,16.67,15.05,16.74,14.74,16.84z M15.38,18.26c-0.01,0.12-0.12,0.22-0.32,0.3
			c-0.4,0.15-0.8,0.27-1.22,0.38s-0.87,0.12-1.36,0.05c0.55-0.14,0.99-0.35,1.3-0.64c0.31-0.29,0.52-0.51,0.62-0.65
			c0.17,0.06,0.34,0.08,0.5,0.06c0.17-0.02,0.33,0.02,0.49,0.12C15.4,18.01,15.39,18.14,15.38,18.26z M13.25,20.71
			c0.08,0.11,0.12,0.25,0.14,0.41c0.01,0.17,0.05,0.32,0.11,0.47c0.15-0.09,0.3-0.16,0.44-0.23c0.14-0.06,0.32-0.12,0.54-0.17
			c-0.03-0.12,0-0.3,0.1-0.53s0.17-0.42,0.23-0.57C14.44,20.17,13.92,20.37,13.25,20.71z M15.48,12.42
			c-0.01,0.24-0.11,0.36-0.29,0.37c-0.67,0.04-1.04-0.07-1.1-0.32c-0.03-0.12-0.07-0.27-0.1-0.46c-0.04-0.19-0.22-0.37-0.54-0.54
			c0.26,0.02,0.6,0.07,1.01,0.15s0.69,0.17,0.83,0.28C15.43,12.01,15.49,12.18,15.48,12.42z M19.63,13.37
			c-0.06,0.35-0.18,0.67-0.38,0.96c0.25-0.08,0.54-0.14,0.86-0.18s0.51-0.14,0.58-0.3c0.25,0.25,0.51,0.34,0.8,0.27
			c0.29-0.07,0.53,0.06,0.72,0.37c-0.01,0.11-0.02,0.31-0.01,0.61s-0.14,0.37-0.42,0.21c-0.27-0.12-0.68-0.24-1.23-0.35
			c-0.55-0.11-1.11-0.05-1.69,0.17c0.19,0.22,0.36,0.46,0.49,0.7s0.15,0.52,0.06,0.82c0.15-0.02,0.29-0.02,0.41,0.02
			c0.12,0.04,0.27,0.09,0.44,0.15c0.13,0.27,0.32,0.46,0.57,0.56s0.32,0.33,0.21,0.67c-0.11,0.11-0.31,0.43-0.6,0.96
			s-0.59,1.09-0.9,1.69s-0.59,1.16-0.83,1.66s-0.37,0.8-0.39,0.88c-0.02-0.36-0.11-0.69-0.26-0.99c-0.16-0.3-0.34-0.61-0.57-0.93
			c0.19-0.01,0.35,0.06,0.48,0.21c0.13,0.15,0.25,0.25,0.37,0.3c0.17-0.64,0.43-1.32,0.79-2.03c0.35-0.71,0.7-1.38,1.02-1.99
			c-0.06-0.16-0.19-0.32-0.36-0.47s-0.35-0.23-0.52-0.24c-0.02,0.05-0.13,0.24-0.33,0.58c-0.21,0.34-0.46,0.69-0.77,1.06
			c-0.31,0.37-0.65,0.69-1.01,0.96c-0.37,0.27-0.72,0.37-1.05,0.29c0.19-0.12,0.41-0.35,0.67-0.7c0.26-0.35,0.5-0.72,0.75-1.11
			c0.24-0.39,0.46-0.76,0.65-1.11c0.19-0.35,0.31-0.59,0.38-0.71c0.05-0.12,0.07-0.29,0.04-0.51c-0.03-0.22-0.09-0.38-0.18-0.49
			c-0.21,0.08-0.45,0.18-0.71,0.32c-0.26,0.14-0.5,0.3-0.72,0.49c-0.24-0.01-0.43-0.09-0.57-0.24c-0.15-0.15-0.3-0.28-0.47-0.4
			c0.39-0.24,0.82-0.43,1.29-0.57c0.47-0.14,0.93-0.29,1.36-0.47c0.02-0.11,0.04-0.39,0.07-0.83c0.03-0.45,0.03-0.73-0.02-0.83
			c-0.1-0.23-0.28-0.41-0.52-0.55c-0.25-0.14-0.39-0.34-0.44-0.6c0.19-0.08,0.38-0.11,0.57-0.1c0.28,0.02,0.53,0.11,0.76,0.28
			c0.23,0.17,0.42,0.35,0.58,0.55C19.67,12.71,19.69,13.02,19.63,13.37z"/>
	</g>
	<g>
		<rect x="4.43" y="22.78" class="st19" width="14.58" height="12.55"/>
		<path class="st20" d="M12.31,25.29c-0.08,0.62-0.15,1.23-0.21,1.82c-0.03,0.08-0.09,0.13-0.16,0.14
			c-0.08,0.01-0.15,0.04-0.21,0.08c-0.04-0.08-0.13-0.03-0.27,0.14c-0.14,0.17-0.3,0.35-0.48,0.56c-0.18,0.2-0.35,0.38-0.53,0.51
			c-0.18,0.14-0.32,0.14-0.42,0.01c-0.06-0.05-0.14-0.18-0.26-0.39c-0.1,0.78-0.15,1.55-0.16,2.3C9.6,31.22,9.56,32,9.5,32.81
			c-0.08,0.08-0.14,0.18-0.18,0.29c-0.04,0.11-0.14,0.15-0.3,0.11C8.88,33,8.76,32.76,8.68,32.5c-0.08-0.26-0.17-0.52-0.26-0.78
			c0.05-0.25,0.14-0.72,0.26-1.39C8.8,29.66,8.91,28.95,9,28.2s0.15-1.44,0.17-2.08c0.02-0.65-0.04-1.07-0.18-1.27
			c0.04-0.11,0.2-0.05,0.47,0.17c0.27,0.22,0.43,0.35,0.45,0.38c0.08-0.06,0.13-0.12,0.17-0.19c0.04-0.06,0.12-0.07,0.23-0.01
			c0.15,0.19,0.45,0.31,0.9,0.38c0.01-0.25,0.04-0.51,0.08-0.8c0.05-0.28,0.1-0.54,0.15-0.77c-0.15,0.06-0.32,0.17-0.53,0.35
			c-0.21,0.18-0.36,0.27-0.45,0.29c-0.16-0.1-0.39-0.16-0.7-0.16c-0.31,0-0.46-0.11-0.46-0.34c0.33-0.37,0.73-0.59,1.2-0.66
			c0.47-0.07,0.86-0.3,1.15-0.69c0.16,0.14,0.32,0.26,0.48,0.36c0.16,0.1,0.33,0.21,0.51,0.32C12.51,24.08,12.39,24.67,12.31,25.29z
			 M10.77,26.39c-0.22,0.05-0.35-0.02-0.39-0.21s-0.16-0.3-0.34-0.32c0.02,0.32-0.01,0.64-0.11,0.94S9.78,27.4,9.77,27.7
			c0.17-0.13,0.39-0.26,0.66-0.38c0.27-0.12,0.5-0.24,0.68-0.35c0.02-0.08,0.04-0.2,0.05-0.38s0.03-0.35,0.03-0.52
			c-0.05,0.01-0.13,0.06-0.22,0.15S10.81,26.37,10.77,26.39z M14.5,30.13c-0.09,0.29-0.19,0.57-0.31,0.84
			c0.07,0.19,0.08,0.35,0.04,0.47c-0.16,0.29-0.34,0.37-0.54,0.25s-0.3-0.27-0.28-0.46c-0.06,0-0.2,0.04-0.42,0.1
			s-0.44,0.14-0.67,0.21s-0.44,0.15-0.63,0.21s-0.28,0.09-0.28,0.08c-0.24-0.41-0.34-0.86-0.28-1.35c0.05-0.49-0.07-0.93-0.37-1.32
			c0.03-0.07,0.05-0.13,0.04-0.18c0.28-0.08,0.56-0.15,0.86-0.2s0.58-0.1,0.87-0.16c0.19-0.08,0.42-0.08,0.7-0.02
			s0.47-0.04,0.57-0.3c0.12,0.06,0.31,0.2,0.56,0.42s0.4,0.4,0.45,0.54C14.69,29.56,14.59,29.84,14.5,30.13z M13.58,29.39
			c-0.24-0.04-0.53-0.02-0.86,0.05s-0.61,0.1-0.83,0.08c-0.02,0.13-0.03,0.36-0.02,0.67s0.01,0.53,0,0.66
			c0.21-0.08,0.46-0.13,0.77-0.14c0.31-0.01,0.57-0.04,0.8-0.08C13.53,30.27,13.58,29.85,13.58,29.39z M16.96,26.35
			c-0.03,0.87-0.04,1.75-0.03,2.62c0.01,0.88,0.02,1.75,0.01,2.61c-0.01,0.87-0.09,1.71-0.26,2.52c-0.14,0.08-0.25,0.18-0.35,0.3
			c-0.1,0.12-0.23,0.21-0.41,0.28c0.07-0.23-0.03-0.51-0.29-0.84c-0.26-0.33-0.38-0.54-0.36-0.63c0.11,0.03,0.22,0.07,0.32,0.11
			c0.1,0.05,0.23,0.06,0.37,0.03c0.1-0.13,0.17-0.46,0.2-0.98c0.03-0.52,0.04-1.08,0.03-1.7c-0.01-0.61-0.02-1.2-0.04-1.77
			c-0.02-0.57-0.02-0.97-0.01-1.21c-0.2-0.15-0.41-0.22-0.63-0.21c-0.22,0.01-0.45,0.02-0.67,0.05s-0.43,0.03-0.63,0
			s-0.38-0.15-0.52-0.37c0.05-0.1,0.04-0.2-0.02-0.29s-0.11-0.18-0.12-0.29c0.12-0.46,0.2-0.93,0.23-1.4
			c0.03-0.47,0.04-0.95,0.03-1.45c-0.05-0.07-0.16-0.15-0.33-0.23c0.18-0.14,0.31-0.21,0.4-0.21c0.08,0,0.18,0.04,0.29,0.12
			c0.24-0.13,0.62-0.18,1.14-0.14c0.52,0.04,0.86-0.06,1.03-0.31c0.06,0.25,0.23,0.44,0.51,0.55s0.44,0.21,0.49,0.29
			C17.11,24.63,16.99,25.48,16.96,26.35z M16.23,23.73c-0.46-0.04-0.81,0.01-1.03,0.15c-0.11-0.04-0.24-0.07-0.38-0.07
			c-0.15,0-0.25,0-0.29,0.01c-0.06,0.1-0.04,0.28,0.06,0.52s0.13,0.44,0.09,0.58c0.07-0.02,0.14-0.05,0.2-0.09s0.12-0.09,0.19-0.12
			c0.17,0.03,0.33,0.07,0.49,0.12c0.16,0.05,0.31,0.13,0.45,0.24c0.02,0.12-0.01,0.23-0.11,0.32s-0.16,0.16-0.18,0.22
			c-0.18-0.05-0.36-0.04-0.54,0.04s-0.36,0.07-0.54-0.04c-0.1,0.36-0.13,0.76-0.11,1.19c0.36-0.05,0.64-0.05,0.83-0.01
			c0.19,0.05,0.44,0.07,0.75,0.08c-0.04-0.53-0.02-1.06,0.04-1.59S16.23,24.24,16.23,23.73z"/>
	</g>
</g>
<g>
	<rect x="4.52" y="39.18" class="st19" width="41.86" height="9.02"/>
	<path d="M5.77,45.89v-6.71h0.65v3.11h4.03v-3.11h0.65v6.71h-0.65v-3.37H6.42v3.37H5.77z"/>
	<path d="M13.11,42.54c0-0.49,0.09-0.95,0.26-1.38c0.18-0.43,0.42-0.8,0.74-1.11c0.32-0.32,0.69-0.56,1.11-0.74
		c0.42-0.18,0.88-0.26,1.38-0.26s0.95,0.09,1.38,0.26c0.43,0.18,0.8,0.42,1.11,0.74c0.32,0.32,0.56,0.69,0.74,1.11
		c0.18,0.42,0.26,0.88,0.26,1.38s-0.09,0.95-0.26,1.38c-0.18,0.43-0.42,0.8-0.74,1.11c-0.31,0.32-0.69,0.56-1.11,0.74
		c-0.42,0.17-0.88,0.26-1.38,0.26s-0.95-0.09-1.38-0.26c-0.43-0.18-0.8-0.42-1.11-0.74c-0.32-0.32-0.56-0.69-0.74-1.11
		C13.19,43.49,13.11,43.03,13.11,42.54z M13.83,42.54c0,0.65,0.12,1.22,0.35,1.71c0.23,0.49,0.55,0.87,0.97,1.14s0.9,0.41,1.45,0.41
		c0.55,0,1.03-0.14,1.45-0.41s0.74-0.65,0.97-1.15c0.23-0.49,0.34-1.06,0.34-1.71s-0.12-1.21-0.34-1.7
		c-0.23-0.49-0.55-0.87-0.97-1.15s-0.9-0.41-1.45-0.41c-0.55,0-1.03,0.14-1.44,0.41s-0.73,0.65-0.97,1.14
		C13.95,41.31,13.83,41.88,13.83,42.54z M15.31,38.04v-0.38h2.57v0.38H15.31z"/>
	<path d="M28.41,39.18v6.71h-0.65v-6.15H27.7l-2.32,4.45h-0.3l-2.64-3.92h-0.06l0.21,5.63h-0.65l0.24-6.84h0.19l3.02,4.49h0.06
		l2.26-4.35H28.41z"/>
	<path d="M30.42,42.54c0-0.49,0.09-0.95,0.26-1.38c0.18-0.43,0.42-0.8,0.74-1.11s0.69-0.56,1.11-0.74s0.88-0.26,1.38-0.26
		c0.49,0,0.95,0.09,1.38,0.26s0.8,0.42,1.11,0.74c0.32,0.32,0.56,0.69,0.74,1.11c0.18,0.42,0.26,0.88,0.26,1.38
		s-0.09,0.95-0.26,1.38c-0.18,0.43-0.42,0.8-0.74,1.11c-0.32,0.32-0.69,0.56-1.11,0.74c-0.42,0.17-0.88,0.26-1.38,0.26
		c-0.49,0-0.95-0.09-1.38-0.26c-0.42-0.18-0.79-0.42-1.11-0.74s-0.56-0.69-0.74-1.11C30.51,43.49,30.42,43.03,30.42,42.54z
		 M31.15,42.54c0,0.65,0.12,1.22,0.34,1.71c0.23,0.49,0.55,0.87,0.97,1.14c0.42,0.27,0.9,0.41,1.45,0.41c0.55,0,1.03-0.14,1.45-0.41
		c0.42-0.27,0.74-0.65,0.97-1.15c0.23-0.49,0.34-1.06,0.34-1.71s-0.12-1.21-0.34-1.7c-0.23-0.49-0.55-0.87-0.97-1.15
		c-0.42-0.27-0.9-0.41-1.45-0.41c-0.55,0-1.03,0.14-1.44,0.41s-0.74,0.65-0.97,1.14C31.27,41.31,31.15,41.88,31.15,42.54z"/>
	<path d="M39.27,45.89l0.24-6.84h0.12l4.82,5.83h0.06l-0.21-5.69h0.65l-0.24,6.84h-0.11l-4.82-5.83h-0.06l0.21,5.69H39.27z"/>
</g>
<g>
</g>
<g>
</g>
<g>
</g>
<g>
</g>
<g>
</g>
<g>
</g>
</svg>
